<svg width="637" height="621" viewBox="0 0 637 621" fill="none" xmlns="http://www.w3.org/2000/svg">
<path opacity="0.2" d="M0 469.101C63.0953 469.101 125.573 456.967 183.865 433.393C242.158 409.818 295.124 375.264 339.739 331.704C384.354 288.144 419.744 236.431 443.89 179.517C468.036 122.603 480.463 61.6032 480.463 1.99148e-06L433.8 0C433.8 55.6202 422.579 110.696 400.779 162.082C378.978 213.468 347.025 260.159 306.743 299.489C266.461 338.818 218.639 370.016 166.008 391.301C113.377 412.586 56.9674 423.541 2.03972e-06 423.541L0 469.101Z" fill="#7C57FF"/>
<path opacity="0.1" d="M0 621C83.5262 621 166.234 604.937 243.403 573.729C320.571 542.521 390.687 496.779 449.749 439.113C508.811 381.448 555.662 312.99 587.626 237.646C619.59 162.303 636.042 81.5509 636.042 2.63635e-06L574.268 0C574.268 73.6305 559.414 146.54 530.555 214.566C501.695 282.592 459.395 344.401 406.069 396.466C352.743 448.531 289.436 489.83 219.763 518.008C150.089 546.185 75.4139 560.687 2.7002e-06 560.687L0 621Z" fill="#7C57FF"/>
<path opacity="0.4" d="M0 344.007C46.2699 344.007 92.0867 335.109 134.835 317.821C177.582 300.533 216.424 275.194 249.142 243.25C281.859 211.306 307.813 173.383 325.519 131.646C343.226 89.909 352.34 45.1756 352.34 1.46042e-06L318.12 0C318.12 40.7881 309.891 81.1769 293.904 118.86C277.917 156.544 254.485 190.783 224.945 219.625C195.404 248.467 160.335 271.345 121.739 286.954C83.1431 302.563 41.7761 310.597 1.4958e-06 310.597L0 344.007Z" fill="#7C57FF"/>
<path opacity="0.5" d="M0 218.914C29.4445 218.914 58.6006 213.251 85.8038 202.25C113.007 191.248 137.724 175.123 158.545 154.795C179.365 134.467 195.881 110.334 207.149 83.7747C218.417 57.2148 224.216 28.7482 224.216 0L116.92 1.24635e-05C116.92 14.9911 113.896 29.8354 108.02 43.6853C102.144 57.5353 93.5322 70.1197 82.6751 80.72C71.818 91.3203 58.9289 99.7289 44.7434 105.466C30.558 111.203 15.3542 114.155 4.69005e-06 114.155L0 218.914Z" fill="#7C57FF"/>
</svg>
