<svg width="200" height="70" viewBox="0 0 200 70" fill="none" xmlns="http://www.w3.org/2000/svg">
<path d="M179.516 55.6619C175.908 55.6619 172.841 54.9854 170.316 53.6325C167.836 52.2796 165.941 50.408 164.634 48.0178C163.326 45.6276 162.672 42.8766 162.672 39.7649C162.672 36.7884 163.439 34.1051 164.972 31.7149C166.505 29.3247 168.557 27.4306 171.128 26.0326C173.698 24.5894 176.562 23.8679 179.719 23.8679C183.958 23.8679 187.431 25.1081 190.137 27.5884C192.288 29.4934 193.847 32.0746 194.812 35.3318C195.293 36.9547 194.277 38.5913 192.664 39.1037L174.939 44.7339C173.551 45.1749 172.057 44.4751 171.506 43.1262V43.1262C170.898 41.6344 171.674 39.9384 173.2 39.4234L187.025 34.759V34.759C185.983 35.2262 184.779 34.648 184.113 33.7205C183.824 33.3189 183.487 32.9435 183.101 32.5943C182.199 31.6924 180.824 31.2414 178.975 31.2414C177.577 31.2414 176.337 31.5796 175.254 32.2561C174.217 32.8874 173.405 33.812 172.819 35.0296C172.278 36.2021 172.007 37.6002 172.007 39.2237C172.007 41.0727 172.345 42.6286 173.022 43.8913C173.698 45.109 174.623 46.0335 175.795 46.6649C176.968 47.2962 178.276 47.6119 179.719 47.6119C180.756 47.6119 181.748 47.4315 182.695 47.0708V47.0708C184.37 46.4617 186.352 46.9049 187.265 48.4356L188.034 49.7261C189.003 51.3516 188.453 53.478 186.689 54.1618C186.031 54.4169 185.354 54.6463 184.657 54.8501C182.853 55.3913 181.139 55.6619 179.516 55.6619Z" fill="#6439FF"/>
<path d="M151.086 55.459C148.651 55.459 146.374 55.0306 144.254 54.1737C143.111 53.7015 142.064 53.1267 141.112 52.4491C139.777 51.4985 139.698 49.6318 140.684 48.3229V48.3229C141.875 46.7424 144.133 46.5854 145.815 47.6266C146.184 47.8544 146.543 48.0525 146.892 48.2208C148.155 48.762 149.282 49.0326 150.275 49.0326C151.041 49.0326 151.718 48.9649 152.304 48.8296C152.935 48.6492 153.431 48.4012 153.792 48.0855C154.153 47.7247 154.333 47.2737 154.333 46.7326C154.333 45.9659 154.018 45.3571 153.386 44.9061C152.8 44.4551 152.033 44.0943 151.086 43.8237C150.139 43.5081 149.125 43.1924 148.042 42.8767C145.336 42.0198 143.375 40.7796 142.157 39.1561C140.984 37.4875 140.398 35.6836 140.398 33.7444C140.398 32.2561 140.781 30.7679 141.548 29.2797C142.36 27.7463 143.623 26.4836 145.336 25.4914C147.095 24.4542 149.35 23.9355 152.101 23.9355C154.581 23.9355 156.678 24.1836 158.392 24.6797C159.165 24.9035 159.92 25.1916 160.657 25.544C162.201 26.2828 162.538 28.2365 161.609 29.6741L161.51 29.8273C160.527 31.3476 158.44 31.6671 156.769 30.9708V30.9708C155.731 30.4747 154.762 30.2042 153.86 30.1591C153.048 30.114 152.349 30.2042 151.763 30.4296C151.222 30.6551 150.793 30.9483 150.478 31.3091C150.162 31.6698 150.004 32.0532 150.004 32.4591C149.959 33.3159 150.275 33.9924 150.951 34.4885C151.673 34.9845 152.575 35.3679 153.657 35.6385C154.739 35.909 155.799 36.2247 156.836 36.5855C158.279 37.0365 159.52 37.6453 160.557 38.412C161.594 39.1786 162.383 40.1032 162.925 41.1855C163.511 42.2228 163.804 43.4855 163.804 44.9737C163.804 46.7777 163.33 48.4914 162.383 50.1149C161.481 51.6933 160.083 52.9786 158.189 53.9708C156.34 54.9629 153.973 55.459 151.086 55.459Z" fill="#6439FF"/>
<path d="M122.522 55.662C119.771 55.662 117.268 55.1208 115.013 54.0385C112.803 52.911 111.045 51.1973 109.737 48.8973C108.429 46.5973 107.775 43.6659 107.775 40.1032C107.775 36.7659 108.451 33.8797 109.804 31.4444C111.157 29.0091 112.939 27.1375 115.148 25.8297C117.358 24.4768 119.703 23.8003 122.184 23.8003C125.115 23.8003 127.325 24.2964 128.813 25.2885C129.947 25.989 130.933 26.7512 131.771 27.575C132.31 28.1045 132.447 28.9057 132.195 29.6179V29.6179L132.525 27.9976C132.845 26.4213 134.231 25.2885 135.839 25.2885H138.487C140.355 25.2885 141.869 26.8029 141.869 28.6709V51.4679C141.869 53.3359 140.355 54.8502 138.487 54.8502H133.367C132.832 54.8502 132.398 54.4164 132.398 53.8812V50.1472C132.398 49.8052 132.874 49.7208 132.992 50.0418V50.0418C133.065 50.2415 132.952 50.5705 132.805 50.7243C132.679 50.8563 132.521 51.0365 132.331 51.2649C131.88 51.761 131.203 52.3698 130.301 53.0914C129.444 53.7679 128.362 54.3541 127.054 54.8502C125.792 55.3914 124.281 55.662 122.522 55.662ZM125.228 47.9502C126.355 47.9502 127.37 47.7924 128.272 47.4767C129.174 47.1159 129.963 46.6199 130.64 45.9885C131.15 45.4779 131.609 44.8774 132.017 44.187C132.284 43.7349 132.398 43.2122 132.398 42.6871V36.8432C132.398 36.449 132.337 36.0543 132.172 35.6963C131.824 34.9423 131.359 34.2917 130.775 33.7444C130.053 33.0228 129.196 32.4816 128.204 32.1209C127.212 31.715 126.107 31.512 124.89 31.512C123.537 31.512 122.274 31.8728 121.101 32.5944C119.974 33.2709 119.072 34.2179 118.395 35.4356C117.719 36.6532 117.381 38.0512 117.381 39.6297C117.381 41.2081 117.742 42.6287 118.463 43.8914C119.185 45.1542 120.132 46.1463 121.304 46.8679C122.522 47.5895 123.83 47.9502 125.228 47.9502Z" fill="#6439FF"/>
<path d="M80.4451 3.36139C80.6527 1.50494 82.326 0.16832 84.1824 0.375953L115.067 3.8302C116.923 4.03784 118.26 5.7111 118.052 7.56754L117.624 11.3948C117.417 13.2512 115.743 14.5878 113.887 14.3802L93.8651 12.1409C92.0086 11.9333 90.3354 13.2699 90.1277 15.1263L89.5564 20.2346C89.3488 22.0911 90.6854 23.7643 92.5418 23.972L109.492 25.8678C111.349 26.0754 112.685 27.7487 112.478 29.6051L112.049 33.4323C111.842 35.2888 110.169 36.6254 108.312 36.4178L91.3619 34.522C89.5054 34.3143 87.8322 35.651 87.6245 37.5074L87.0363 42.7664C86.8287 44.6229 88.1653 46.2961 90.0218 46.5038L111.092 48.8604C112.949 49.068 114.285 50.7413 114.078 52.5977L113.65 56.425C113.442 58.2814 111.769 59.618 109.912 59.4104L77.9792 55.8388C76.1228 55.6312 74.7861 53.9579 74.9938 52.1015L80.4451 3.36139Z" fill="#6439FF"/>
<path d="M58.4682 69.056C56.0141 69.056 54.3769 66.5244 55.3835 64.2863L72.0262 27.2834C72.5723 26.0693 73.7797 25.2885 75.1109 25.2885H76.2831C78.7203 25.2885 80.3576 27.7881 79.3838 30.0222L63.2558 67.0251C62.7182 68.2585 61.5006 69.056 60.1552 69.056H58.4682ZM64.3589 52.9075C62.6549 54.012 60.3687 53.3766 59.4789 51.5513L49.0478 30.1529C47.9525 27.9061 49.5886 25.2885 52.0881 25.2885H55.1044C56.4383 25.2885 57.6476 26.0724 58.1921 27.2901L67.2766 47.6063C67.9571 49.1281 67.4274 50.9187 66.0285 51.8253L64.3589 52.9075Z" fill="#6439FF"/>
<path d="M36.9856 55.662C34.2346 55.662 31.7316 55.1208 29.4767 54.0385C27.2669 52.911 25.5081 51.1973 24.2003 48.8973C22.8924 46.5973 22.2385 43.6659 22.2385 40.1032C22.2385 36.7659 22.915 33.8797 24.2679 31.4444C25.6209 29.0091 27.4022 27.1375 29.612 25.8297C31.8218 24.4768 34.1669 23.8003 36.6473 23.8003C39.5787 23.8003 41.7885 24.2964 43.2767 25.2885C44.4108 25.989 45.3969 26.7512 46.235 27.5751C46.7736 28.1045 46.9104 28.9057 46.6591 29.6179V29.6179L46.9882 27.9976C47.3084 26.4213 48.6944 25.2885 50.3028 25.2885H52.9502C54.8182 25.2885 56.3326 26.8029 56.3326 28.6709V51.4679C56.3326 53.3359 54.8182 54.8502 52.9502 54.8502H47.831C47.2958 54.8502 46.862 54.4164 46.862 53.8812V50.1472C46.862 49.8052 47.3376 49.7208 47.4553 50.0418V50.0418C47.5285 50.2415 47.4159 50.5705 47.269 50.7243C47.1429 50.8563 46.9847 51.0365 46.7944 51.2649C46.3434 51.761 45.6669 52.3698 44.7649 53.0914C43.9081 53.7679 42.8257 54.3541 41.5179 54.8502C40.2552 55.3914 38.7444 55.662 36.9856 55.662ZM39.6914 47.9502C40.8189 47.9502 41.8336 47.7924 42.7355 47.4767C43.6375 47.1159 44.4267 46.6199 45.1032 45.9885C45.6138 45.4779 46.073 44.8774 46.4808 44.187C46.7478 43.7349 46.862 43.2122 46.862 42.6871V36.8432C46.862 36.449 46.8007 36.0543 46.6356 35.6963C46.288 34.9423 45.8223 34.2917 45.2385 33.7444C44.5169 33.0228 43.66 32.4816 42.6679 32.1209C41.6757 31.715 40.5708 31.512 39.3532 31.512C38.0003 31.512 36.7375 31.8728 35.565 32.5944C34.4375 33.2709 33.5356 34.2179 32.8591 35.4356C32.1826 36.6532 31.8444 38.0512 31.8444 39.6297C31.8444 41.2081 32.2052 42.6287 32.9267 43.8914C33.6483 45.1542 34.5954 46.1463 35.7679 46.8679C36.9856 47.5895 38.2934 47.9502 39.6914 47.9502Z" fill="#6439FF"/>
<path d="M15.0853 5.06207C19.1892 5.06207 22.6617 5.76109 25.5029 7.15913C28.3441 8.51207 30.5088 10.4513 31.997 12.9768C33.4852 15.4572 34.2293 18.4111 34.2293 21.8385C34.2293 23.8679 33.9137 25.9199 33.2823 27.9944C32.696 30.0238 31.7264 31.8728 30.3735 33.5414C29.0656 35.21 27.2843 36.563 25.0294 37.6002C22.8196 38.5924 20.0911 39.0885 16.8441 39.0885H13.1911C11.3231 39.0885 9.8088 40.6028 9.8088 42.4708V51.4679C9.8088 53.3359 8.29447 54.8502 6.42646 54.8502H3.38234C1.51433 54.8502 0 53.3359 0 51.4679V8.44442C0 6.5764 1.51433 5.06207 3.38235 5.06207H15.0853ZM16.7764 29.5503C18.2647 29.5503 19.5049 29.3022 20.497 28.8061C21.4892 28.265 22.2558 27.611 22.797 26.8444C23.3833 26.0326 23.7892 25.1983 24.0147 24.3414C24.2852 23.4846 24.4205 22.7405 24.4205 22.1091C24.4205 21.613 24.3303 20.9591 24.1499 20.1473C24.0147 19.2905 23.699 18.4336 23.2029 17.5768C22.7068 16.7199 21.9401 15.9983 20.9029 15.4121C19.9107 14.8258 18.5578 14.5326 16.8441 14.5326H13.1911C11.3231 14.5326 9.8088 16.047 9.8088 17.915V26.1679C9.8088 28.0359 11.3231 29.5503 13.1911 29.5503H16.7764Z" fill="#6439FF"/>
<circle cx="192.825" cy="47.4192" r="3.07507" fill="url(#paint0_linear_351_1434)"/>
<circle cx="197.95" cy="44.3442" r="2.05005" fill="url(#paint1_linear_351_1434)"/>
<circle cx="38.5368" cy="39.5368" r="2.53676" fill="url(#paint2_linear_351_1434)"/>
<defs>
<linearGradient id="paint0_linear_351_1434" x1="192.825" y1="44.3442" x2="192.825" y2="50.4943" gradientUnits="userSpaceOnUse">
<stop stop-color="#FFD572"/>
<stop offset="1" stop-color="#FEBD38"/>
</linearGradient>
<linearGradient id="paint1_linear_351_1434" x1="197.95" y1="42.2941" x2="197.95" y2="46.3942" gradientUnits="userSpaceOnUse">
<stop stop-color="#FFD572"/>
<stop offset="1" stop-color="#FEBD38"/>
</linearGradient>
<linearGradient id="paint2_linear_351_1434" x1="38.5368" y1="37" x2="38.5368" y2="42.0735" gradientUnits="userSpaceOnUse">
<stop stop-color="#FFD572"/>
<stop offset="1" stop-color="#FEBD38"/>
</linearGradient>
</defs>
</svg>
