<svg width="157" height="54" viewBox="0 0 157 54" fill="none" xmlns="http://www.w3.org/2000/svg">
<path d="M140.377 43.5262C137.556 43.5262 135.158 42.9972 133.183 41.9392C131.243 40.8813 129.762 39.4178 128.739 37.5487C127.717 35.6796 127.205 33.5284 127.205 31.0951C127.205 28.7676 127.805 26.6693 129.004 24.8002C130.203 22.9312 131.807 21.45 133.817 20.3568C135.828 19.2283 138.067 18.6641 140.536 18.6641C143.85 18.6641 146.566 19.6339 148.682 21.5735C150.365 23.0631 151.583 25.0815 152.338 27.6286C152.714 28.8976 151.92 30.1774 150.658 30.5781L136.798 34.9807C135.712 35.3256 134.544 34.7784 134.114 33.7236C133.638 32.557 134.244 31.2308 135.438 30.8281L146.249 27.1807C145.434 27.546 144.493 27.0938 143.972 26.3685C143.746 26.0545 143.482 25.761 143.18 25.4879C142.475 24.7826 141.4 24.43 139.954 24.43C138.86 24.43 137.891 24.6945 137.044 25.2234C136.233 25.7171 135.598 26.4401 135.14 27.3923C134.717 28.3092 134.505 29.4024 134.505 30.6719C134.505 32.1178 134.77 33.3345 135.299 34.3219C135.828 35.2741 136.551 35.997 137.467 36.4907C138.384 36.9844 139.407 37.2313 140.536 37.2313C141.347 37.2313 142.122 37.0902 142.863 36.8081C144.173 36.3319 145.723 36.6784 146.436 37.8754L147.038 38.8845C147.796 40.1556 147.366 41.8184 145.986 42.3532C145.471 42.5526 144.942 42.732 144.397 42.8914C142.986 43.3146 141.646 43.5262 140.377 43.5262Z" fill="white"/>
<path d="M118.146 43.3676C116.241 43.3676 114.46 43.0325 112.803 42.3625C111.909 41.9933 111.09 41.5437 110.346 41.0139C109.302 40.2706 109.24 38.8109 110.011 37.7874C110.942 36.5514 112.708 36.4286 114.024 37.2428C114.312 37.4209 114.592 37.5758 114.866 37.7075C115.853 38.1307 116.735 38.3422 117.511 38.3422C118.11 38.3422 118.639 38.2894 119.098 38.1836C119.591 38.0425 119.979 37.8485 120.261 37.6017C120.544 37.3196 120.685 36.9669 120.685 36.5437C120.685 35.9442 120.438 35.4681 119.944 35.1155C119.486 34.7628 118.886 34.4807 118.146 34.2691C117.405 34.0222 116.612 33.7754 115.765 33.5285C113.649 32.8585 112.115 31.8887 111.163 30.6191C110.246 29.3143 109.788 27.9037 109.788 26.3873C109.788 25.2235 110.087 24.0598 110.687 22.896C111.322 21.697 112.309 20.7095 113.649 19.9337C115.025 19.1226 116.788 18.717 118.939 18.717C120.879 18.717 122.518 18.911 123.859 19.2989C124.463 19.474 125.054 19.6993 125.63 19.9748C126.837 20.5525 127.1 22.0802 126.374 23.2044L126.296 23.3242C125.528 24.5131 123.896 24.7629 122.589 24.2184C121.778 23.8305 121.02 23.6189 120.314 23.5837C119.68 23.5484 119.133 23.6189 118.675 23.7953C118.251 23.9716 117.916 24.2008 117.669 24.4829C117.423 24.7651 117.299 25.0648 117.299 25.3822C117.264 26.0522 117.511 26.5812 118.04 26.9691C118.604 27.3571 119.309 27.6568 120.156 27.8684C121.002 28.08 121.831 28.3269 122.642 28.609C123.77 28.9616 124.74 29.4377 125.551 30.0372C126.362 30.6368 126.98 31.3597 127.403 32.2061C127.861 33.0172 128.09 34.0046 128.09 35.1684C128.09 36.579 127.72 37.9191 126.98 39.1886C126.274 40.4229 125.181 41.428 123.7 42.2038C122.254 42.9797 120.403 43.3676 118.146 43.3676Z" fill="white"/>
<path d="M95.8089 43.5263C93.6577 43.5263 91.7005 43.1032 89.9372 42.2568C88.2092 41.3752 86.8339 40.0351 85.8112 38.2365C84.7885 36.438 84.2771 34.1457 84.2771 31.3598C84.2771 28.7501 84.8061 26.4931 85.8641 24.5888C86.922 22.6845 88.315 21.221 90.043 20.1983C91.771 19.1403 93.6048 18.6113 95.5444 18.6113C97.8367 18.6113 99.5647 18.9992 100.728 19.7751C101.615 20.3229 102.386 20.9189 103.042 21.5631C103.463 21.9771 103.57 22.6036 103.373 23.1606L103.631 21.8935C103.881 20.6609 104.965 19.7751 106.223 19.7751H108.293C109.754 19.7751 110.938 20.9593 110.938 22.42V40.2467C110.938 41.7074 109.754 42.8916 108.293 42.8916H104.29C103.871 42.8916 103.532 42.5523 103.532 42.1338V39.2139C103.532 38.9465 103.904 38.8805 103.996 39.1315C104.053 39.2877 103.965 39.5449 103.85 39.6652C103.752 39.7684 103.628 39.9093 103.479 40.088C103.127 40.4759 102.598 40.952 101.892 41.5162C101.222 42.0452 100.376 42.5037 99.3531 42.8916C98.3657 43.3148 97.1843 43.5263 95.8089 43.5263ZM97.9248 37.496C98.8065 37.496 99.6 37.3725 100.305 37.1257C101.011 36.8435 101.628 36.4556 102.157 35.9619C102.556 35.5627 102.915 35.0931 103.234 34.5532C103.443 34.1996 103.532 33.7909 103.532 33.3803V28.8106C103.532 28.5023 103.484 28.1936 103.355 27.9137C103.083 27.3241 102.719 26.8153 102.263 26.3874C101.698 25.8231 101.028 25.3999 100.252 25.1178C99.4765 24.8004 98.6125 24.6417 97.6604 24.6417C96.6024 24.6417 95.615 24.9238 94.6981 25.4881C93.8164 26.0171 93.1111 26.7576 92.5821 27.7098C92.0532 28.662 91.7887 29.7552 91.7887 30.9895C91.7887 32.2238 92.0708 33.3346 92.635 34.3221C93.1993 35.3095 93.9399 36.0853 94.8568 36.6496C95.8089 37.2138 96.8316 37.496 97.9248 37.496Z" fill="white"/>
<path d="M62.9061 2.62851C63.0684 1.17682 64.3769 0.131622 65.8286 0.293985L89.9793 2.99512C91.431 3.15748 92.4762 4.46593 92.3139 5.91762L91.9791 8.91042C91.8168 10.3621 90.5083 11.4073 89.0566 11.2449L73.4001 9.49386C71.9484 9.33149 70.64 10.3767 70.4776 11.8284L70.0309 15.8229C69.8685 17.2746 70.9137 18.5831 72.3654 18.7454L85.6201 20.2279C87.0718 20.3903 88.117 21.6987 87.9546 23.1504L87.6199 26.1432C87.4575 27.5949 86.1491 28.6401 84.6974 28.4777L71.4427 26.9953C69.991 26.8329 68.6826 27.8781 68.5202 29.3298L68.0602 33.4422C67.8979 34.8939 68.9431 36.2024 70.3948 36.3647L86.8714 38.2076C88.3231 38.3699 89.3683 39.6784 89.2059 41.1301L88.8712 44.1228C88.7089 45.5745 87.4004 46.6197 85.9487 46.4574L60.9778 43.6645C59.5261 43.5022 58.4809 42.1937 58.6433 40.742L62.9061 2.62851Z" fill="white"/>
<path d="M45.7206 54C43.8015 54 42.5213 52.0204 43.3084 50.2702L56.3226 21.3349C56.7496 20.3855 57.6938 19.7749 58.7348 19.7749H59.6514C61.5572 19.7749 62.8375 21.7295 62.076 23.4766L49.4643 52.4119C49.0439 53.3764 48.0919 54 47.0397 54H45.7206ZM50.3269 41.3723C48.9945 42.2359 47.2067 41.7391 46.5109 40.3118L38.354 23.5788C37.4976 21.8218 38.777 19.7749 40.7315 19.7749H43.0902C44.1332 19.7749 45.0789 20.3879 45.5047 21.3401L52.6085 37.2269C53.1406 38.4169 52.7264 39.8171 51.6326 40.5261L50.3269 41.3723Z" fill="white"/>
<path d="M28.9217 43.5263C26.7706 43.5263 24.8133 43.1032 23.0501 42.2568C21.322 41.3752 19.9467 40.0351 18.924 38.2365C17.9013 36.438 17.39 34.1457 17.39 31.3598C17.39 28.7501 17.9189 26.4931 18.9769 24.5888C20.0349 22.6845 21.4278 21.221 23.1558 20.1983C24.8839 19.1403 26.7177 18.6113 28.6573 18.6113C30.9495 18.6113 32.6775 18.9992 33.8413 19.7751C34.7281 20.3229 35.4992 20.9189 36.1546 21.5631C36.5758 21.9771 36.6828 22.6036 36.4862 23.1606L36.7435 21.8935C36.9939 20.6609 38.0777 19.7751 39.3355 19.7751H41.4057C42.8664 19.7751 44.0506 20.9593 44.0506 22.42V40.2467C44.0506 41.7074 42.8664 42.8916 41.4057 42.8916H37.4026C36.9841 42.8916 36.6449 42.5523 36.6449 42.1338V39.2139C36.6449 38.9465 37.0168 38.8805 37.1088 39.1315C37.1661 39.2877 37.078 39.5449 36.9631 39.6652C36.8645 39.7684 36.7408 39.9093 36.592 40.088C36.2393 40.4759 35.7103 40.952 35.005 41.5162C34.335 42.0452 33.4886 42.5037 32.4659 42.8916C31.4785 43.3148 30.2971 43.5263 28.9217 43.5263ZM31.0377 37.496C31.9193 37.496 32.7128 37.3725 33.4181 37.1257C34.1234 36.8435 34.7405 36.4556 35.2695 35.9619C35.6688 35.5627 36.0279 35.0931 36.3468 34.5532C36.5556 34.1996 36.6449 33.7909 36.6449 33.3803V28.8106C36.6449 28.5023 36.5969 28.1936 36.4678 27.9137C36.196 27.3241 35.8318 26.8153 35.3753 26.3874C34.8111 25.8231 34.141 25.3999 33.3652 25.1178C32.5893 24.8004 31.7253 24.6417 30.7732 24.6417C29.7152 24.6417 28.7278 24.9238 27.8109 25.4881C26.9293 26.0171 26.2239 26.7576 25.695 27.7098C25.166 28.662 24.9015 29.7552 24.9015 30.9895C24.9015 32.2238 25.1836 33.3346 25.7479 34.3221C26.3121 35.3095 27.0527 36.0853 27.9696 36.6496C28.9217 37.2138 29.9444 37.496 31.0377 37.496Z" fill="white"/>
<path d="M11.7963 3.95825C15.0055 3.95825 17.7209 4.50487 19.9426 5.59809C22.1643 6.65606 23.8571 8.17247 25.0208 10.1473C26.1846 12.0869 26.7665 14.3968 26.7665 17.077C26.7665 18.6639 26.5196 20.2685 26.0259 21.8907C25.5675 23.4777 24.8093 24.9235 23.7513 26.2284C22.7286 27.5332 21.3356 28.5911 19.5723 29.4023C17.8443 30.1781 15.7108 30.566 13.1717 30.566H10.3152C8.85442 30.566 7.67026 31.7502 7.67026 33.2109V40.2464C7.67026 41.7071 6.48609 42.8913 5.02535 42.8913H2.64494C1.1842 42.8913 3.05176e-05 41.7071 3.05176e-05 40.2464V6.60316C3.05176e-05 5.14242 1.1842 3.95825 2.64494 3.95825H11.7963ZM13.1188 23.1074C14.2825 23.1074 15.2523 22.9134 16.0282 22.5255C16.804 22.1023 17.4035 21.591 17.8267 20.9914C18.2852 20.3567 18.6025 19.7043 18.7789 19.0342C18.9905 18.3642 19.0963 17.7823 19.0963 17.2886C19.0963 16.9007 19.0257 16.3893 18.8847 15.7545C18.7789 15.0845 18.532 14.4145 18.1441 13.7444C17.7562 13.0744 17.1567 12.5101 16.3456 12.0517C15.5697 11.5932 14.5118 11.364 13.1717 11.364H10.3152C8.85442 11.364 7.67026 12.5482 7.67026 14.0089V20.4625C7.67026 21.9232 8.85442 23.1074 10.3152 23.1074H13.1188Z" fill="white"/>
<circle cx="150.784" cy="37.0807" r="2.40462" fill="url(#paint0_linear_342_649)"/>
<circle cx="154.792" cy="34.6761" r="1.60308" fill="url(#paint1_linear_342_649)"/>
<circle cx="30.1347" cy="30.9168" r="1.98368" fill="url(#paint2_linear_342_649)"/>
<defs>
<linearGradient id="paint0_linear_342_649" x1="150.784" y1="34.676" x2="150.784" y2="39.4853" gradientUnits="userSpaceOnUse">
<stop stop-color="#FFD572"/>
<stop offset="1" stop-color="#FEBD38"/>
</linearGradient>
<linearGradient id="paint1_linear_342_649" x1="154.792" y1="33.073" x2="154.792" y2="36.2792" gradientUnits="userSpaceOnUse">
<stop stop-color="#FFD572"/>
<stop offset="1" stop-color="#FEBD38"/>
</linearGradient>
<linearGradient id="paint2_linear_342_649" x1="30.1347" y1="28.9331" x2="30.1347" y2="32.9005" gradientUnits="userSpaceOnUse">
<stop stop-color="#FFD572"/>
<stop offset="1" stop-color="#FEBD38"/>
</linearGradient>
</defs>
</svg>
