<svg width="513" height="440" viewBox="0 0 513 440" fill="none" xmlns="http://www.w3.org/2000/svg">
<rect y="23" width="224" height="178.176" rx="6.34456" fill="white"/>
<path d="M11.2502 37.0081H12.3767L14.3353 41.7906H14.4074L16.3661 37.0081H17.4926V43.1604H16.6094V38.7084H16.5523L14.7379 43.1514H14.0049L12.1904 38.7054H12.1334V43.1604H11.2502V37.0081ZM20.1129 43.2625C19.8205 43.2625 19.5561 43.2085 19.3198 43.1003C19.0835 42.9902 18.8962 42.831 18.7581 42.6227C18.6219 42.4144 18.5538 42.159 18.5538 41.8566C18.5538 41.5963 18.6038 41.382 18.704 41.2138C18.8041 41.0455 18.9393 40.9124 19.1095 40.8142C19.2798 40.7161 19.47 40.642 19.6803 40.5919C19.8906 40.5419 20.1049 40.5038 20.3232 40.4778C20.5995 40.4457 20.8238 40.4197 20.9961 40.3997C21.1683 40.3776 21.2935 40.3426 21.3716 40.2945C21.4497 40.2465 21.4887 40.1684 21.4887 40.0602V40.0392C21.4887 39.7768 21.4146 39.5736 21.2664 39.4294C21.1202 39.2852 20.9019 39.2131 20.6116 39.2131C20.3091 39.2131 20.0708 39.2802 19.8966 39.4143C19.7244 39.5465 19.6052 39.6937 19.5391 39.8559L18.695 39.6637C18.7951 39.3833 18.9413 39.157 19.1336 38.9848C19.3278 38.8105 19.5511 38.6844 19.8035 38.6063C20.0558 38.5261 20.3212 38.4861 20.5995 38.4861C20.7838 38.4861 20.9791 38.5081 21.1853 38.5522C21.3936 38.5942 21.5879 38.6723 21.7681 38.7865C21.9504 38.9007 22.0996 39.0639 22.2157 39.2762C22.3319 39.4864 22.39 39.7598 22.39 40.0963V43.1604H21.5128V42.5295H21.4767C21.4186 42.6457 21.3315 42.7599 21.2154 42.872C21.0992 42.9842 20.95 43.0773 20.7678 43.1514C20.5855 43.2255 20.3672 43.2625 20.1129 43.2625ZM20.3081 42.5416C20.5565 42.5416 20.7688 42.4925 20.945 42.3944C21.1232 42.2962 21.2584 42.1681 21.3506 42.0098C21.4447 41.8496 21.4917 41.6784 21.4917 41.4962V40.9014C21.4597 40.9334 21.3976 40.9634 21.3055 40.9915C21.2154 41.0175 21.1122 41.0405 20.9961 41.0606C20.8799 41.0786 20.7668 41.0956 20.6566 41.1116C20.5465 41.1257 20.4543 41.1377 20.3802 41.1477C20.206 41.1697 20.0468 41.2068 19.9026 41.2588C19.7604 41.3109 19.6463 41.386 19.5601 41.4841C19.476 41.5803 19.434 41.7084 19.434 41.8687C19.434 42.091 19.5161 42.2592 19.6803 42.3733C19.8445 42.4855 20.0538 42.5416 20.3081 42.5416ZM23.5863 43.1604V38.5462H24.4545V39.2792H24.5026C24.5867 39.0308 24.7349 38.8356 24.9472 38.6934C25.1614 38.5492 25.4038 38.4771 25.6741 38.4771C25.7302 38.4771 25.7963 38.4791 25.8724 38.4831C25.9505 38.4871 26.0116 38.4921 26.0557 38.4981V39.3573C26.0196 39.3473 25.9555 39.3362 25.8634 39.3242C25.7713 39.3102 25.6791 39.3032 25.587 39.3032C25.3747 39.3032 25.1855 39.3483 25.0193 39.4384C24.855 39.5265 24.7249 39.6497 24.6287 39.8079C24.5326 39.9641 24.4845 40.1423 24.4845 40.3426V43.1604H23.5863ZM27.6591 41.5953L27.6531 40.4988H27.8093L29.6477 38.5462H30.7232L28.6264 40.7692H28.4852L27.6591 41.5953ZM26.833 43.1604V37.0081H27.7312V43.1604H26.833ZM29.7469 43.1604L28.0947 40.9674L28.7135 40.3396L30.8494 43.1604H29.7469ZM33.3405 43.2535C32.8859 43.2535 32.4943 43.1564 32.1659 42.9621C31.8395 42.7659 31.5871 42.4905 31.4089 42.136C31.2326 41.7795 31.1445 41.362 31.1445 40.8833C31.1445 40.4107 31.2326 39.9941 31.4089 39.6336C31.5871 39.2732 31.8355 38.9918 32.1539 38.7895C32.4743 38.5872 32.8488 38.4861 33.2774 38.4861C33.5377 38.4861 33.7901 38.5292 34.0344 38.6153C34.2787 38.7014 34.498 38.8366 34.6923 39.0208C34.8866 39.2051 35.0398 39.4444 35.1519 39.7388C35.2641 40.0312 35.3202 40.3867 35.3202 40.8052V41.1237H31.6522V40.4507H34.44C34.44 40.2144 34.3919 40.0051 34.2958 39.8229C34.1996 39.6386 34.0645 39.4935 33.8902 39.3873C33.718 39.2812 33.5157 39.2281 33.2834 39.2281C33.0311 39.2281 32.8108 39.2902 32.6225 39.4143C32.4363 39.5365 32.2921 39.6967 32.1899 39.895C32.0898 40.0913 32.0397 40.3045 32.0397 40.5349V41.0606C32.0397 41.369 32.0938 41.6313 32.2019 41.8476C32.3121 42.0639 32.4653 42.2291 32.6616 42.3433C32.8578 42.4554 33.0871 42.5115 33.3495 42.5115C33.5197 42.5115 33.6749 42.4875 33.8151 42.4394C33.9553 42.3894 34.0765 42.3153 34.1786 42.2171C34.2808 42.119 34.3589 41.9978 34.4129 41.8536L35.2631 42.0068C35.195 42.2572 35.0728 42.4765 34.8966 42.6647C34.7223 42.851 34.5031 42.9962 34.2387 43.1003C33.9763 43.2025 33.6769 43.2535 33.3405 43.2535ZM38.4707 38.5462V39.2671H35.9503V38.5462H38.4707ZM36.6262 37.4407H37.5244V41.8056C37.5244 41.9798 37.5504 42.111 37.6025 42.1991C37.6546 42.2852 37.7216 42.3443 37.8038 42.3763C37.8879 42.4064 37.979 42.4214 38.0771 42.4214C38.1492 42.4214 38.2123 42.4164 38.2664 42.4064C38.3205 42.3964 38.3625 42.3884 38.3925 42.3824L38.5548 43.1244C38.5027 43.1444 38.4286 43.1644 38.3325 43.1844C38.2363 43.2065 38.1162 43.2185 37.972 43.2205C37.7357 43.2245 37.5154 43.1824 37.3111 43.0943C37.1068 43.0062 36.9416 42.87 36.8154 42.6858C36.6892 42.5015 36.6262 42.2702 36.6262 41.9918V37.4407ZM39.4642 43.1604V38.5462H40.3625V43.1604H39.4642ZM39.9179 37.8342C39.7616 37.8342 39.6275 37.7821 39.5153 37.678C39.4052 37.5719 39.3501 37.4457 39.3501 37.2995C39.3501 37.1513 39.4052 37.0251 39.5153 36.921C39.6275 36.8148 39.7616 36.7618 39.9179 36.7618C40.0741 36.7618 40.2072 36.8148 40.3174 36.921C40.4295 37.0251 40.4856 37.1513 40.4856 37.2995C40.4856 37.4457 40.4295 37.5719 40.3174 37.678C40.2072 37.7821 40.0741 37.8342 39.9179 37.8342ZM42.469 40.4207V43.1604H41.5708V38.5462H42.433V39.2972H42.4901C42.5962 39.0529 42.7624 38.8566 42.9887 38.7084C43.2171 38.5602 43.5044 38.4861 43.8509 38.4861C44.1653 38.4861 44.4407 38.5522 44.677 38.6844C44.9133 38.8145 45.0966 39.0088 45.2268 39.2671C45.3569 39.5255 45.422 39.8449 45.422 40.2254V43.1604H44.5238V40.3336C44.5238 39.9991 44.4367 39.7378 44.2625 39.5495C44.0882 39.3593 43.8489 39.2641 43.5445 39.2641C43.3362 39.2641 43.151 39.3092 42.9887 39.3993C42.8285 39.4894 42.7014 39.6216 42.6072 39.7959C42.5151 39.9681 42.469 40.1764 42.469 40.4207ZM48.5613 44.9869C48.1948 44.9869 47.8793 44.9388 47.615 44.8427C47.3526 44.7465 47.1383 44.6194 46.9721 44.4612C46.8059 44.3029 46.6817 44.1297 46.5996 43.9415L47.3717 43.623C47.4257 43.7111 47.4978 43.8043 47.588 43.9024C47.6801 44.0025 47.8042 44.0877 47.9605 44.1577C48.1187 44.2278 48.3219 44.2629 48.5703 44.2629C48.9107 44.2629 49.1921 44.1798 49.4144 44.0136C49.6367 43.8493 49.7479 43.587 49.7479 43.2265V42.3193H49.6908C49.6367 42.4174 49.5586 42.5265 49.4565 42.6467C49.3563 42.7669 49.2182 42.871 49.0419 42.9591C48.8657 43.0472 48.6364 43.0913 48.354 43.0913C47.9895 43.0913 47.6611 43.0062 47.3687 42.836C47.0783 42.6637 46.848 42.4104 46.6777 42.0759C46.5095 41.7395 46.4254 41.3259 46.4254 40.8353C46.4254 40.3446 46.5085 39.924 46.6747 39.5736C46.8429 39.2231 47.0733 38.9547 47.3657 38.7685C47.658 38.5802 47.9895 38.4861 48.36 38.4861C48.6464 38.4861 48.8777 38.5342 49.0539 38.6303C49.2302 38.7244 49.3674 38.8346 49.4655 38.9607C49.5656 39.0869 49.6427 39.1981 49.6968 39.2942H49.7629V38.5462H50.6431V43.2625C50.6431 43.6591 50.551 43.9845 50.3667 44.2389C50.1825 44.4932 49.9331 44.6815 49.6187 44.8036C49.3063 44.9258 48.9538 44.9869 48.5613 44.9869ZM48.5523 42.3463C48.8106 42.3463 49.0289 42.2862 49.2071 42.1661C49.3874 42.0439 49.5236 41.8697 49.6157 41.6434C49.7098 41.415 49.7569 41.1417 49.7569 40.8232C49.7569 40.5128 49.7108 40.2395 49.6187 40.0031C49.5266 39.7668 49.3914 39.5826 49.2131 39.4504C49.0349 39.3162 48.8146 39.2491 48.5523 39.2491C48.2819 39.2491 48.0566 39.3192 47.8763 39.4594C47.6961 39.5976 47.5599 39.7858 47.4678 40.0242C47.3777 40.2625 47.3326 40.5288 47.3326 40.8232C47.3326 41.1257 47.3787 41.391 47.4708 41.6193C47.5629 41.8476 47.6991 42.0259 47.8793 42.154C48.0616 42.2822 48.2859 42.3463 48.5523 42.3463Z" fill="#1E265E"/>
<path d="M170.572 37.2715V36.7759H174.032V37.2715H172.581V41.3901H172.023V37.2715H170.572ZM175.354 39.3083V41.3901H174.823V36.7759H175.354V38.4702H175.399C175.481 38.2914 175.602 38.1495 175.764 38.0443C175.928 37.9377 176.146 37.8844 176.418 37.8844C176.654 37.8844 176.86 37.9317 177.037 38.0263C177.215 38.1194 177.352 38.2629 177.45 38.4566C177.549 38.6489 177.598 38.8937 177.598 39.1911V41.3901H177.067V39.2272C177.067 38.9523 176.995 38.7398 176.853 38.5896C176.711 38.4379 176.515 38.362 176.265 38.362C176.09 38.362 175.934 38.3988 175.796 38.4724C175.659 38.546 175.551 38.6534 175.472 38.7946C175.393 38.9358 175.354 39.107 175.354 39.3083ZM178.571 41.3901V37.9294H179.103V41.3901H178.571ZM178.842 37.3527C178.738 37.3527 178.648 37.3174 178.573 37.2468C178.5 37.1762 178.463 37.0913 178.463 36.9922C178.463 36.893 178.5 36.8082 178.573 36.7376C178.648 36.667 178.738 36.6317 178.842 36.6317C178.945 36.6317 179.034 36.667 179.107 36.7376C179.182 36.8082 179.22 36.893 179.22 36.9922C179.22 37.0913 179.182 37.1762 179.107 37.2468C179.034 37.3174 178.945 37.3527 178.842 37.3527ZM182.528 38.7045L182.05 38.8397C182.02 38.7601 181.976 38.6827 181.917 38.6076C181.86 38.531 181.782 38.4679 181.683 38.4183C181.584 38.3688 181.457 38.344 181.302 38.344C181.091 38.344 180.914 38.3928 180.773 38.4904C180.633 38.5866 180.563 38.709 180.563 38.8577C180.563 38.9899 180.611 39.0943 180.708 39.1709C180.804 39.2475 180.954 39.3113 181.158 39.3624L181.672 39.4885C181.981 39.5636 182.212 39.6785 182.364 39.8333C182.515 39.9865 182.591 40.184 182.591 40.4258C182.591 40.6241 182.534 40.8013 182.42 40.9575C182.307 41.1137 182.15 41.2369 181.947 41.327C181.744 41.4171 181.508 41.4622 181.239 41.4622C180.886 41.4622 180.594 41.3856 180.363 41.2324C180.132 41.0792 179.985 40.8554 179.924 40.561L180.428 40.4348C180.476 40.6211 180.567 40.7608 180.701 40.8539C180.836 40.947 181.012 40.9936 181.23 40.9936C181.478 40.9936 181.675 40.941 181.821 40.8359C181.968 40.7292 182.041 40.6015 182.041 40.4528C182.041 40.3327 181.999 40.232 181.915 40.1509C181.831 40.0683 181.702 40.0067 181.528 39.9662L180.951 39.831C180.634 39.7559 180.401 39.6395 180.252 39.4818C180.105 39.3226 180.032 39.1235 180.032 38.8847C180.032 38.6895 180.086 38.5167 180.196 38.3665C180.307 38.2163 180.458 38.0984 180.649 38.0128C180.841 37.9272 181.059 37.8844 181.302 37.8844C181.645 37.8844 181.914 37.9595 182.109 38.1097C182.306 38.2599 182.445 38.4582 182.528 38.7045ZM186.086 41.3901L184.824 36.7759H185.392L186.357 40.534H186.402L187.384 36.7759H188.015L188.997 40.534H189.042L190.006 36.7759H190.574L189.313 41.3901H188.736L187.717 37.7131H187.681L186.663 41.3901H186.086ZM192.327 41.4622C191.994 41.4622 191.706 41.3886 191.464 41.2414C191.224 41.0927 191.038 40.8854 190.908 40.6196C190.778 40.3522 190.714 40.0413 190.714 39.6868C190.714 39.3323 190.778 39.0199 190.908 38.7495C191.038 38.4777 191.22 38.2659 191.453 38.1142C191.687 37.961 191.961 37.8844 192.273 37.8844C192.453 37.8844 192.631 37.9144 192.807 37.9745C192.983 38.0346 193.143 38.1322 193.287 38.2674C193.431 38.4011 193.546 38.5783 193.632 38.7991C193.717 39.0199 193.76 39.2918 193.76 39.6147V39.84H191.092V39.3804H193.219C193.219 39.1851 193.18 39.0109 193.102 38.8577C193.026 38.7045 192.916 38.5836 192.773 38.4949C192.632 38.4063 192.465 38.362 192.273 38.362C192.061 38.362 191.878 38.4146 191.723 38.5197C191.57 38.6234 191.452 38.7586 191.37 38.9253C191.287 39.092 191.246 39.2707 191.246 39.4615V39.7679C191.246 40.0293 191.291 40.2508 191.381 40.4326C191.472 40.6128 191.599 40.7502 191.762 40.8449C191.924 40.938 192.112 40.9846 192.327 40.9846C192.467 40.9846 192.593 40.965 192.706 40.926C192.82 40.8854 192.918 40.8253 193.001 40.7457C193.083 40.6646 193.147 40.564 193.192 40.4438L193.706 40.588C193.652 40.7623 193.561 40.9155 193.433 41.0476C193.306 41.1783 193.148 41.2805 192.96 41.3541C192.772 41.4262 192.561 41.4622 192.327 41.4622ZM196.02 41.4622C195.686 41.4622 195.399 41.3886 195.157 41.2414C194.917 41.0927 194.731 40.8854 194.6 40.6196C194.471 40.3522 194.407 40.0413 194.407 39.6868C194.407 39.3323 194.471 39.0199 194.6 38.7495C194.731 38.4777 194.913 38.2659 195.146 38.1142C195.38 37.961 195.653 37.8844 195.966 37.8844C196.146 37.8844 196.324 37.9144 196.5 37.9745C196.675 38.0346 196.835 38.1322 196.98 38.2674C197.124 38.4011 197.239 38.5783 197.324 38.7991C197.41 39.0199 197.453 39.2918 197.453 39.6147V39.84H194.785V39.3804H196.912C196.912 39.1851 196.873 39.0109 196.795 38.8577C196.718 38.7045 196.609 38.5836 196.466 38.4949C196.325 38.4063 196.158 38.362 195.966 38.362C195.754 38.362 195.571 38.4146 195.416 38.5197C195.263 38.6234 195.145 38.7586 195.062 38.9253C194.98 39.092 194.938 39.2707 194.938 39.4615V39.7679C194.938 40.0293 194.983 40.2508 195.074 40.4326C195.165 40.6128 195.292 40.7502 195.454 40.8449C195.617 40.938 195.805 40.9846 196.02 40.9846C196.159 40.9846 196.286 40.965 196.398 40.926C196.512 40.8854 196.611 40.8253 196.693 40.7457C196.776 40.6646 196.84 40.564 196.885 40.4438L197.399 40.588C197.345 40.7623 197.254 40.9155 197.126 41.0476C196.998 41.1783 196.841 41.2805 196.653 41.3541C196.465 41.4262 196.254 41.4622 196.02 41.4622ZM198.757 40.1284L198.748 39.4705H198.856L200.37 37.9294H201.028L199.415 39.5606H199.37L198.757 40.1284ZM198.262 41.3901V36.7759H198.793V41.3901H198.262ZM200.461 41.3901L199.109 39.6778L199.487 39.3083L201.136 41.3901H200.461Z" fill="#767676"/>
<path d="M207.081 38.3327L209.196 40.4475L211.311 38.3327" stroke="#767676" stroke-width="1.05743" stroke-linecap="round" stroke-linejoin="round"/>
<rect x="10.5743" y="52.8901" width="4.22971" height="4.22971" rx="2.11485" fill="#5570F1"/>
<path d="M19.7194 57.505H19.1824L20.7355 53.2753H21.2642L22.8173 57.505H22.2803L21.0164 53.9444H20.9833L19.7194 57.505ZM19.9176 55.8527H22.082V56.3071H19.9176V55.8527ZM24.6988 57.571C24.4014 57.571 24.1453 57.5008 23.9305 57.3604C23.7157 57.2199 23.5505 57.0265 23.4348 56.78C23.3191 56.5336 23.2613 56.252 23.2613 55.9353C23.2613 55.6132 23.3205 55.3288 23.4389 55.0824C23.5587 54.8345 23.7253 54.6411 23.9387 54.502C24.1535 54.3616 24.4041 54.2914 24.6905 54.2914C24.9135 54.2914 25.1146 54.3327 25.2936 54.4153C25.4726 54.4979 25.6192 54.6136 25.7335 54.7623C25.8477 54.911 25.9187 55.0844 25.9462 55.2827H25.4588C25.4216 55.1381 25.339 55.0101 25.2109 54.8986C25.0843 54.7857 24.9135 54.7292 24.6988 54.7292C24.5088 54.7292 24.3422 54.7788 24.199 54.8779C24.0571 54.9757 23.9463 55.114 23.8664 55.293C23.788 55.4707 23.7487 55.6792 23.7487 55.9188C23.7487 56.1639 23.7873 56.3773 23.8644 56.5591C23.9429 56.7408 24.053 56.8819 24.1948 56.9824C24.338 57.083 24.506 57.1332 24.6988 57.1332C24.8254 57.1332 24.9404 57.1112 25.0437 57.0671C25.1469 57.0231 25.2344 56.9597 25.306 56.8771C25.3775 56.7945 25.4285 56.6954 25.4588 56.5797H25.9462C25.9187 56.767 25.8505 56.9356 25.7417 57.0857C25.6343 57.2344 25.4918 57.3528 25.3142 57.4409C25.138 57.5277 24.9328 57.571 24.6988 57.571ZM28.8231 58.6946V57.0176H28.7818C28.746 57.0754 28.6951 57.1484 28.629 57.2365C28.5629 57.3232 28.4686 57.401 28.3461 57.4698C28.2235 57.5373 28.0604 57.571 27.8566 57.571C27.5922 57.571 27.3588 57.5043 27.1564 57.3707C26.9541 57.2358 26.7957 57.0458 26.6814 56.8007C26.5672 56.5542 26.51 56.263 26.51 55.9271C26.51 55.5939 26.5672 55.3047 26.6814 55.0597C26.7957 54.8146 26.9547 54.6253 27.1585 54.4917C27.3623 54.3582 27.5977 54.2914 27.8648 54.2914C28.0714 54.2914 28.2345 54.3258 28.3543 54.3946C28.4755 54.4621 28.5677 54.5392 28.6311 54.6259C28.6958 54.7113 28.746 54.7815 28.7818 54.8366H28.8397V54.3327H29.3105V58.6946H28.8231ZM27.9227 57.1332C28.1182 57.1332 28.2834 57.0823 28.4183 56.9804C28.5533 56.8771 28.6558 56.7346 28.7261 56.5529C28.7963 56.3697 28.8314 56.1584 28.8314 55.9188C28.8314 55.682 28.797 55.4748 28.7281 55.2972C28.6593 55.1182 28.5574 54.9791 28.4225 54.88C28.2875 54.7795 28.1209 54.7292 27.9227 54.7292C27.7161 54.7292 27.544 54.7822 27.4063 54.8882C27.27 54.9929 27.1675 55.1354 27.0986 55.3158C27.0312 55.4947 26.9974 55.6958 26.9974 55.9188C26.9974 56.1446 27.0318 56.3498 27.1007 56.5343C27.1709 56.7174 27.2742 56.8633 27.4105 56.9721C27.5482 57.0795 27.7189 57.1332 27.9227 57.1332ZM32.2019 56.208V54.3327H32.6894V57.505H32.2019V56.968H32.1689C32.0945 57.1291 31.9789 57.2661 31.8219 57.379C31.665 57.4905 31.4667 57.5463 31.2271 57.5463C31.0289 57.5463 30.8526 57.5029 30.6984 57.4162C30.5442 57.328 30.423 57.1959 30.3349 57.0196C30.2468 56.842 30.2027 56.6183 30.2027 56.3484V54.3327H30.6902V56.3154C30.6902 56.5467 30.7549 56.7312 30.8843 56.8689C31.0151 57.0065 31.1817 57.0754 31.3841 57.0754C31.5053 57.0754 31.6285 57.0444 31.7538 56.9824C31.8804 56.9205 31.9865 56.8255 32.0718 56.6974C32.1586 56.5694 32.2019 56.4062 32.2019 56.208ZM33.5821 57.505V54.3327H34.0695V57.505H33.5821ZM33.8299 53.804C33.7349 53.804 33.653 53.7716 33.5841 53.7069C33.5167 53.6422 33.4829 53.5644 33.4829 53.4735C33.4829 53.3826 33.5167 53.3049 33.5841 53.2401C33.653 53.1754 33.7349 53.1431 33.8299 53.1431C33.9249 53.1431 34.0061 53.1754 34.0736 53.2401C34.1425 53.3049 34.1769 53.3826 34.1769 53.4735C34.1769 53.5644 34.1425 53.6422 34.0736 53.7069C34.0061 53.7716 33.9249 53.804 33.8299 53.804ZM37.2092 55.0431L36.7714 55.1671C36.7439 55.0941 36.7032 55.0232 36.6495 54.9543C36.5972 54.8841 36.5256 54.8263 36.4347 54.7808C36.3439 54.7354 36.2275 54.7127 36.0857 54.7127C35.8916 54.7127 35.7298 54.7574 35.6004 54.8469C35.4723 54.9351 35.4083 55.0473 35.4083 55.1836C35.4083 55.3047 35.4524 55.4004 35.5405 55.4707C35.6286 55.5409 35.7663 55.5994 35.9535 55.6462L36.4244 55.7619C36.7081 55.8307 36.9194 55.936 37.0585 56.0778C37.1975 56.2183 37.2671 56.3993 37.2671 56.621C37.2671 56.8028 37.2147 56.9652 37.1101 57.1084C37.0068 57.2516 36.8623 57.3645 36.6764 57.4471C36.4905 57.5297 36.2743 57.571 36.0279 57.571C35.7043 57.571 35.4365 57.5008 35.2245 57.3604C35.0125 57.2199 34.8782 57.0148 34.8218 56.7449L35.2844 56.6293C35.3284 56.8 35.4117 56.9281 35.5343 57.0134C35.6582 57.0988 35.82 57.1415 36.0196 57.1415C36.2468 57.1415 36.4272 57.0933 36.5607 56.9969C36.6957 56.8991 36.7631 56.7821 36.7631 56.6458C36.7631 56.5357 36.7246 56.4434 36.6475 56.3691C36.5704 56.2933 36.452 56.2369 36.2922 56.1997L35.7635 56.0758C35.473 56.0069 35.2596 55.9002 35.1233 55.7557C34.9884 55.6097 34.9209 55.4273 34.9209 55.2084C34.9209 55.0294 34.9711 54.871 35.0717 54.7333C35.1735 54.5957 35.3119 54.4876 35.4868 54.4091C35.663 54.3306 35.8627 54.2914 36.0857 54.2914C36.3996 54.2914 36.6461 54.3602 36.8251 54.4979C37.0055 54.6356 37.1335 54.8173 37.2092 55.0431ZM38.0008 57.505V54.3327H38.4882V57.505H38.0008ZM38.2486 53.804C38.1536 53.804 38.0717 53.7716 38.0028 53.7069C37.9354 53.6422 37.9016 53.5644 37.9016 53.4735C37.9016 53.3826 37.9354 53.3049 38.0028 53.2401C38.0717 53.1754 38.1536 53.1431 38.2486 53.1431C38.3436 53.1431 38.4248 53.1754 38.4923 53.2401C38.5611 53.3049 38.5956 53.3826 38.5956 53.4735C38.5956 53.5644 38.5611 53.6422 38.4923 53.7069C38.4248 53.7716 38.3436 53.804 38.2486 53.804ZM40.7605 54.3327V54.7457H39.1165V54.3327H40.7605ZM39.5957 53.5727H40.0831V56.5962C40.0831 56.7339 40.103 56.8372 40.143 56.906C40.1843 56.9735 40.2366 57.0189 40.2999 57.0423C40.3646 57.0644 40.4328 57.0754 40.5044 57.0754C40.5581 57.0754 40.6022 57.0726 40.6366 57.0671C40.671 57.0602 40.6985 57.0547 40.7192 57.0506L40.8183 57.4884C40.7853 57.5008 40.7392 57.5132 40.6799 57.5256C40.6207 57.5394 40.5457 57.5463 40.4548 57.5463C40.3171 57.5463 40.1822 57.5167 40.05 57.4575C39.9192 57.3983 39.8105 57.3081 39.7237 57.1869C39.6384 57.0657 39.5957 56.9129 39.5957 56.7284V53.5727ZM41.4937 57.505V54.3327H41.9811V57.505H41.4937ZM41.7415 53.804C41.6465 53.804 41.5646 53.7716 41.4957 53.7069C41.4283 53.6422 41.3945 53.5644 41.3945 53.4735C41.3945 53.3826 41.4283 53.3049 41.4957 53.2401C41.5646 53.1754 41.6465 53.1431 41.7415 53.1431C41.8365 53.1431 41.9177 53.1754 41.9852 53.2401C42.054 53.3049 42.0885 53.3826 42.0885 53.4735C42.0885 53.5644 42.054 53.6422 41.9852 53.7069C41.9177 53.7716 41.8365 53.804 41.7415 53.804ZM44.1625 57.571C43.8761 57.571 43.6249 57.5029 43.4087 57.3666C43.1939 57.2303 43.0259 57.0396 42.9048 56.7945C42.785 56.5494 42.7251 56.263 42.7251 55.9353C42.7251 55.6049 42.785 55.3164 42.9048 55.07C43.0259 54.8235 43.1939 54.6321 43.4087 54.4958C43.6249 54.3595 43.8761 54.2914 44.1625 54.2914C44.4489 54.2914 44.6995 54.3595 44.9143 54.4958C45.1305 54.6321 45.2984 54.8235 45.4182 55.07C45.5394 55.3164 45.6 55.6049 45.6 55.9353C45.6 56.263 45.5394 56.5494 45.4182 56.7945C45.2984 57.0396 45.1305 57.2303 44.9143 57.3666C44.6995 57.5029 44.4489 57.571 44.1625 57.571ZM44.1625 57.1332C44.3801 57.1332 44.5591 57.0774 44.6995 56.9659C44.8399 56.8544 44.9439 56.7078 45.0114 56.526C45.0788 56.3443 45.1126 56.1474 45.1126 55.9353C45.1126 55.7233 45.0788 55.5257 45.0114 55.3426C44.9439 55.1595 44.8399 55.0115 44.6995 54.8986C44.5591 54.7857 44.3801 54.7292 44.1625 54.7292C43.945 54.7292 43.766 54.7857 43.6256 54.8986C43.4851 55.0115 43.3812 55.1595 43.3137 55.3426C43.2462 55.5257 43.2125 55.7233 43.2125 55.9353C43.2125 56.1474 43.2462 56.3443 43.3137 56.526C43.3812 56.7078 43.4851 56.8544 43.6256 56.9659C43.766 57.0774 43.945 57.1332 44.1625 57.1332ZM46.8314 55.5966V57.505H46.344V54.3327H46.8149V54.8283H46.8562C46.9305 54.6673 47.0434 54.5378 47.1949 54.4401C47.3463 54.3409 47.5419 54.2914 47.7814 54.2914C47.9962 54.2914 48.1842 54.3354 48.3453 54.4236C48.5063 54.5103 48.6316 54.6425 48.7211 54.8201C48.8106 54.9963 48.8554 55.2194 48.8554 55.4892V57.505H48.368V55.5223C48.368 55.2731 48.3033 55.0789 48.1738 54.9399C48.0444 54.7994 47.8668 54.7292 47.641 54.7292C47.4854 54.7292 47.3463 54.7629 47.2238 54.8304C47.1026 54.8979 47.007 54.9963 46.9367 55.1257C46.8665 55.2552 46.8314 55.4121 46.8314 55.5966Z" fill="#A6A8B1"/>
<rect x="96.7703" y="52.8901" width="4.22971" height="4.22971" rx="2.11485" fill="#97A5EB"/>
<path d="M105.742 57.505V53.2753H107.171C107.503 53.2753 107.774 53.3351 107.985 53.4549C108.197 53.5733 108.354 53.7337 108.456 53.9361C108.558 54.1385 108.609 54.3643 108.609 54.6136C108.609 54.8628 108.558 55.0893 108.456 55.293C108.355 55.4968 108.2 55.6593 107.989 55.7804C107.778 55.9002 107.508 55.9601 107.179 55.9601H106.155V55.5058H107.163C107.39 55.5058 107.572 55.4665 107.71 55.388C107.848 55.3096 107.948 55.2035 108.01 55.07C108.073 54.9351 108.105 54.7829 108.105 54.6136C108.105 54.4442 108.073 54.2928 108.01 54.1592C107.948 54.0256 107.847 53.921 107.708 53.8453C107.569 53.7682 107.384 53.7296 107.155 53.7296H106.254V57.505H105.742ZM111.367 56.208V54.3327H111.854V57.505H111.367V56.968H111.334C111.259 57.1291 111.144 57.2661 110.987 57.379C110.83 57.4905 110.631 57.5463 110.392 57.5463C110.194 57.5463 110.017 57.5029 109.863 57.4162C109.709 57.328 109.588 57.1959 109.5 57.0196C109.412 56.842 109.367 56.6183 109.367 56.3484V54.3327H109.855V56.3154C109.855 56.5467 109.92 56.7312 110.049 56.8689C110.18 57.0065 110.346 57.0754 110.549 57.0754C110.67 57.0754 110.793 57.0444 110.919 56.9824C111.045 56.9205 111.151 56.8255 111.237 56.6974C111.323 56.5694 111.367 56.4062 111.367 56.208ZM112.747 57.505V54.3327H113.218V54.8118H113.251C113.309 54.6549 113.413 54.5275 113.565 54.4297C113.716 54.332 113.887 54.2831 114.077 54.2831C114.113 54.2831 114.157 54.2838 114.211 54.2852C114.265 54.2866 114.305 54.2886 114.333 54.2914V54.787C114.316 54.7829 114.279 54.7767 114.219 54.7685C114.162 54.7588 114.1 54.754 114.036 54.754C113.881 54.754 113.744 54.7864 113.623 54.8511C113.503 54.9144 113.408 55.0025 113.337 55.1154C113.269 55.2269 113.234 55.3543 113.234 55.4975V57.505H112.747ZM116.103 57.571C115.806 57.571 115.549 57.5008 115.335 57.3604C115.12 57.2199 114.955 57.0265 114.839 56.78C114.723 56.5336 114.665 56.252 114.665 55.9353C114.665 55.6132 114.725 55.3288 114.843 55.0824C114.963 54.8345 115.129 54.6411 115.343 54.502C115.558 54.3616 115.808 54.2914 116.095 54.2914C116.318 54.2914 116.519 54.3327 116.698 54.4153C116.877 54.4979 117.023 54.6136 117.138 54.7623C117.252 54.911 117.323 55.0844 117.35 55.2827H116.863C116.826 55.1381 116.743 55.0101 116.615 54.8986C116.488 54.7857 116.318 54.7292 116.103 54.7292C115.913 54.7292 115.746 54.7788 115.603 54.8779C115.461 54.9757 115.35 55.114 115.271 55.293C115.192 55.4707 115.153 55.6792 115.153 55.9188C115.153 56.1639 115.191 56.3773 115.269 56.5591C115.347 56.7408 115.457 56.8819 115.599 56.9824C115.742 57.083 115.91 57.1332 116.103 57.1332C116.23 57.1332 116.345 57.1112 116.448 57.0671C116.551 57.0231 116.639 56.9597 116.71 56.8771C116.782 56.7945 116.833 56.6954 116.863 56.5797H117.35C117.323 56.767 117.255 56.9356 117.146 57.0857C117.038 57.2344 116.896 57.3528 116.718 57.4409C116.542 57.5277 116.337 57.571 116.103 57.571ZM118.55 55.5966V57.505H118.063V53.2753H118.55V54.8283H118.592C118.666 54.6645 118.777 54.5344 118.926 54.438C119.076 54.3403 119.276 54.2914 119.525 54.2914C119.741 54.2914 119.931 54.3347 120.093 54.4215C120.256 54.5069 120.382 54.6383 120.471 54.816C120.562 54.9922 120.607 55.2166 120.607 55.4892V57.505H120.12V55.5223C120.12 55.2703 120.054 55.0755 119.924 54.9378C119.794 54.7987 119.615 54.7292 119.385 54.7292C119.225 54.7292 119.082 54.7629 118.955 54.8304C118.83 54.8979 118.731 54.9963 118.658 55.1257C118.586 55.2552 118.55 55.4121 118.55 55.5966ZM122.433 57.5793C122.231 57.5793 122.049 57.5414 121.885 57.4657C121.721 57.3886 121.591 57.2778 121.495 57.1332C121.398 56.9873 121.35 56.811 121.35 56.6045C121.35 56.4227 121.386 56.2754 121.458 56.1625C121.529 56.0482 121.625 55.9587 121.745 55.894C121.865 55.8293 121.997 55.7811 122.141 55.7495C122.287 55.7164 122.434 55.6903 122.581 55.671C122.774 55.6462 122.93 55.6276 123.05 55.6152C123.171 55.6015 123.259 55.5787 123.314 55.5471C123.371 55.5154 123.399 55.4603 123.399 55.3818V55.3653C123.399 55.1615 123.343 55.0032 123.232 54.8903C123.122 54.7774 122.954 54.721 122.73 54.721C122.497 54.721 122.315 54.7719 122.183 54.8738C122.05 54.9757 121.957 55.0844 121.904 55.2001L121.441 55.0349C121.524 54.8421 121.634 54.692 121.772 54.5846C121.911 54.4759 122.062 54.4001 122.226 54.3575C122.391 54.3134 122.554 54.2914 122.713 54.2914C122.815 54.2914 122.932 54.3038 123.064 54.3285C123.198 54.352 123.327 54.4008 123.451 54.4752C123.576 54.5495 123.68 54.6617 123.763 54.8118C123.845 54.9619 123.886 55.1629 123.886 55.4149V57.505H123.399V57.0754H123.374C123.341 57.1442 123.286 57.2179 123.209 57.2964C123.132 57.3748 123.029 57.4416 122.901 57.4967C122.773 57.5518 122.617 57.5793 122.433 57.5793ZM122.507 57.1415C122.7 57.1415 122.862 57.1036 122.994 57.0279C123.128 56.9522 123.228 56.8544 123.296 56.7346C123.365 56.6148 123.399 56.4888 123.399 56.3567V55.9106C123.378 55.9353 123.333 55.9581 123.263 55.9787C123.194 55.998 123.114 56.0152 123.023 56.0303C122.934 56.0441 122.846 56.0565 122.761 56.0675C122.677 56.0772 122.609 56.0854 122.556 56.0923C122.43 56.1088 122.311 56.1357 122.201 56.1728C122.092 56.2086 122.004 56.263 121.937 56.336C121.871 56.4076 121.838 56.5054 121.838 56.6293C121.838 56.7986 121.9 56.9267 122.026 57.0134C122.152 57.0988 122.313 57.1415 122.507 57.1415ZM127.023 55.0431L126.585 55.1671C126.558 55.0941 126.517 55.0232 126.463 54.9543C126.411 54.8841 126.34 54.8263 126.249 54.7808C126.158 54.7354 126.041 54.7127 125.9 54.7127C125.705 54.7127 125.544 54.7574 125.414 54.8469C125.286 54.9351 125.222 55.0473 125.222 55.1836C125.222 55.3047 125.266 55.4004 125.354 55.4707C125.442 55.5409 125.58 55.5994 125.767 55.6462L126.238 55.7619C126.522 55.8307 126.733 55.936 126.872 56.0778C127.011 56.2183 127.081 56.3993 127.081 56.621C127.081 56.8028 127.029 56.9652 126.924 57.1084C126.821 57.2516 126.676 57.3645 126.49 57.4471C126.304 57.5297 126.088 57.571 125.842 57.571C125.518 57.571 125.25 57.5008 125.038 57.3604C124.826 57.2199 124.692 57.0148 124.636 56.7449L125.098 56.6293C125.142 56.8 125.226 56.9281 125.348 57.0134C125.472 57.0988 125.634 57.1415 125.834 57.1415C126.061 57.1415 126.241 57.0933 126.375 56.9969C126.51 56.8991 126.577 56.7821 126.577 56.6458C126.577 56.5357 126.538 56.4434 126.461 56.3691C126.384 56.2933 126.266 56.2369 126.106 56.1997L125.577 56.0758C125.287 56.0069 125.073 55.9002 124.937 55.7557C124.802 55.6097 124.735 55.4273 124.735 55.2084C124.735 55.0294 124.785 54.871 124.886 54.7333C124.987 54.5957 125.126 54.4876 125.301 54.4091C125.477 54.3306 125.677 54.2914 125.9 54.2914C126.214 54.2914 126.46 54.3602 126.639 54.4979C126.819 54.6356 126.947 54.8173 127.023 55.0431ZM129.145 57.571C128.839 57.571 128.575 57.5036 128.354 57.3687C128.133 57.2323 127.963 57.0423 127.844 56.7986C127.725 56.5536 127.666 56.2685 127.666 55.9436C127.666 55.6187 127.725 55.3323 127.844 55.0844C127.963 54.8352 128.13 54.6411 128.343 54.502C128.558 54.3616 128.809 54.2914 129.095 54.2914C129.26 54.2914 129.423 54.3189 129.585 54.374C129.746 54.4291 129.892 54.5186 130.024 54.6425C130.157 54.765 130.262 54.9275 130.34 55.1299C130.419 55.3323 130.458 55.5815 130.458 55.8775V56.084H128.013V55.6627H129.963C129.963 55.4837 129.927 55.324 129.855 55.1836C129.785 55.0431 129.684 54.9323 129.554 54.8511C129.424 54.7698 129.271 54.7292 129.095 54.7292C128.901 54.7292 128.733 54.7774 128.591 54.8738C128.451 54.9688 128.343 55.0927 128.267 55.2455C128.191 55.3984 128.153 55.5622 128.153 55.7371V56.018C128.153 56.2575 128.195 56.4606 128.277 56.6272C128.361 56.7924 128.478 56.9184 128.626 57.0052C128.775 57.0905 128.948 57.1332 129.145 57.1332C129.273 57.1332 129.388 57.1153 129.492 57.0795C129.596 57.0423 129.686 56.9873 129.762 56.9143C129.838 56.8399 129.896 56.7477 129.938 56.6375L130.409 56.7697C130.359 56.9294 130.276 57.0699 130.159 57.191C130.042 57.3108 129.897 57.4044 129.725 57.4719C129.553 57.538 129.359 57.571 129.145 57.571Z" fill="#A6A8B1"/>
<rect x="177.966" y="52.8901" width="4.22971" height="4.22971" rx="2.11485" fill="#FFCC91"/>
<path d="M186.938 57.505V53.2753H188.367C188.698 53.2753 188.969 53.3317 189.181 53.4446C189.393 53.5561 189.55 53.7097 189.652 53.9052C189.754 54.1007 189.805 54.323 189.805 54.5723C189.805 54.8215 189.754 55.0424 189.652 55.2352C189.55 55.428 189.394 55.5794 189.183 55.6896C188.972 55.7983 188.703 55.8527 188.375 55.8527H187.219V55.3901H188.359C188.585 55.3901 188.766 55.3571 188.904 55.291C189.043 55.2249 189.144 55.1313 189.206 55.0101C189.269 54.8876 189.301 54.7416 189.301 54.5723C189.301 54.4029 189.269 54.2549 189.206 54.1282C189.142 54.0015 189.041 53.9038 188.902 53.8349C188.763 53.7647 188.579 53.7296 188.351 53.7296H187.45V57.505H186.938ZM188.929 55.6049L189.97 57.505H189.375L188.351 55.6049H188.929ZM191.888 57.571C191.582 57.571 191.319 57.5036 191.097 57.3687C190.877 57.2323 190.707 57.0423 190.587 56.7986C190.468 56.5536 190.409 56.2685 190.409 55.9436C190.409 55.6187 190.468 55.3323 190.587 55.0844C190.707 54.8352 190.873 54.6411 191.087 54.502C191.301 54.3616 191.552 54.2914 191.838 54.2914C192.004 54.2914 192.167 54.3189 192.328 54.374C192.489 54.4291 192.636 54.5186 192.768 54.6425C192.9 54.765 193.005 54.9275 193.084 55.1299C193.162 55.3323 193.201 55.5815 193.201 55.8775V56.084H190.756V55.6627H192.706C192.706 55.4837 192.67 55.324 192.598 55.1836C192.528 55.0431 192.428 54.9323 192.297 54.8511C192.167 54.7698 192.015 54.7292 191.838 54.7292C191.644 54.7292 191.476 54.7774 191.334 54.8738C191.194 54.9688 191.086 55.0927 191.01 55.2455C190.934 55.3984 190.897 55.5622 190.897 55.7371V56.018C190.897 56.2575 190.938 56.4606 191.02 56.6272C191.104 56.7924 191.221 56.9184 191.37 57.0052C191.518 57.0905 191.691 57.1332 191.888 57.1332C192.016 57.1332 192.132 57.1153 192.235 57.0795C192.34 57.0423 192.43 56.9873 192.505 56.9143C192.581 56.8399 192.64 56.7477 192.681 56.6375L193.152 56.7697C193.102 56.9294 193.019 57.0699 192.902 57.191C192.785 57.3108 192.64 57.4044 192.468 57.4719C192.296 57.538 192.103 57.571 191.888 57.571ZM195.322 54.3327V54.7457H193.678V54.3327H195.322ZM194.158 53.5727H194.645V56.5962C194.645 56.7339 194.665 56.8372 194.705 56.906C194.746 56.9735 194.799 57.0189 194.862 57.0423C194.927 57.0644 194.995 57.0754 195.066 57.0754C195.12 57.0754 195.164 57.0726 195.199 57.0671C195.233 57.0602 195.261 57.0547 195.281 57.0506L195.38 57.4884C195.347 57.5008 195.301 57.5132 195.242 57.5256C195.183 57.5394 195.108 57.5463 195.017 57.5463C194.879 57.5463 194.744 57.5167 194.612 57.4575C194.481 57.3983 194.372 57.3081 194.286 57.1869C194.2 57.0657 194.158 56.9129 194.158 56.7284V53.5727ZM197.352 57.571C197.046 57.571 196.782 57.5036 196.561 57.3687C196.34 57.2323 196.17 57.0423 196.05 56.7986C195.932 56.5536 195.873 56.2685 195.873 55.9436C195.873 55.6187 195.932 55.3323 196.05 55.0844C196.17 54.8352 196.337 54.6411 196.55 54.502C196.765 54.3616 197.016 54.2914 197.302 54.2914C197.467 54.2914 197.63 54.3189 197.792 54.374C197.953 54.4291 198.099 54.5186 198.231 54.6425C198.364 54.765 198.469 54.9275 198.547 55.1299C198.626 55.3323 198.665 55.5815 198.665 55.8775V56.084H196.22V55.6627H198.169C198.169 55.4837 198.134 55.324 198.062 55.1836C197.992 55.0431 197.891 54.9323 197.761 54.8511C197.631 54.7698 197.478 54.7292 197.302 54.7292C197.108 54.7292 196.94 54.7774 196.798 54.8738C196.658 54.9688 196.55 55.0927 196.474 55.2455C196.398 55.3984 196.36 55.5622 196.36 55.7371V56.018C196.36 56.2575 196.402 56.4606 196.484 56.6272C196.568 56.7924 196.685 56.9184 196.833 57.0052C196.982 57.0905 197.155 57.1332 197.352 57.1332C197.48 57.1332 197.595 57.1153 197.699 57.0795C197.803 57.0423 197.893 56.9873 197.969 56.9143C198.045 56.8399 198.103 56.7477 198.145 56.6375L198.616 56.7697C198.566 56.9294 198.483 57.0699 198.366 57.191C198.249 57.3108 198.104 57.4044 197.932 57.4719C197.76 57.538 197.566 57.571 197.352 57.571ZM199.894 55.5966V57.505H199.407V54.3327H199.877V54.8283H199.919C199.993 54.6673 200.106 54.5378 200.257 54.4401C200.409 54.3409 200.604 54.2914 200.844 54.2914C201.059 54.2914 201.247 54.3354 201.408 54.4236C201.569 54.5103 201.694 54.6425 201.784 54.8201C201.873 54.9963 201.918 55.2194 201.918 55.4892V57.505H201.431V55.5223C201.431 55.2731 201.366 55.0789 201.236 54.9399C201.107 54.7994 200.929 54.7292 200.704 54.7292C200.548 54.7292 200.409 54.7629 200.286 54.8304C200.165 54.8979 200.07 54.9963 199.999 55.1257C199.929 55.2552 199.894 55.4121 199.894 55.5966ZM204.188 54.3327V54.7457H202.544V54.3327H204.188ZM203.023 53.5727H203.511V56.5962C203.511 56.7339 203.531 56.8372 203.571 56.906C203.612 56.9735 203.664 57.0189 203.728 57.0423C203.792 57.0644 203.861 57.0754 203.932 57.0754C203.986 57.0754 204.03 57.0726 204.064 57.0671C204.099 57.0602 204.126 57.0547 204.147 57.0506L204.246 57.4884C204.213 57.5008 204.167 57.5132 204.108 57.5256C204.048 57.5394 203.973 57.5463 203.883 57.5463C203.745 57.5463 203.61 57.5167 203.478 57.4575C203.347 57.3983 203.238 57.3081 203.151 57.1869C203.066 57.0657 203.023 56.9129 203.023 56.7284V53.5727ZM204.921 57.505V54.3327H205.409V57.505H204.921ZM205.169 53.804C205.074 53.804 204.992 53.7716 204.923 53.7069C204.856 53.6422 204.822 53.5644 204.822 53.4735C204.822 53.3826 204.856 53.3049 204.923 53.2401C204.992 53.1754 205.074 53.1431 205.169 53.1431C205.264 53.1431 205.345 53.1754 205.413 53.2401C205.482 53.3049 205.516 53.3826 205.516 53.4735C205.516 53.5644 205.482 53.6422 205.413 53.7069C205.345 53.7716 205.264 53.804 205.169 53.804ZM207.59 57.571C207.304 57.571 207.053 57.5029 206.836 57.3666C206.622 57.2303 206.454 57.0396 206.333 56.7945C206.213 56.5494 206.153 56.263 206.153 55.9353C206.153 55.6049 206.213 55.3164 206.333 55.07C206.454 54.8235 206.622 54.6321 206.836 54.4958C207.053 54.3595 207.304 54.2914 207.59 54.2914C207.877 54.2914 208.127 54.3595 208.342 54.4958C208.558 54.6321 208.726 54.8235 208.846 55.07C208.967 55.3164 209.028 55.6049 209.028 55.9353C209.028 56.263 208.967 56.5494 208.846 56.7945C208.726 57.0396 208.558 57.2303 208.342 57.3666C208.127 57.5029 207.877 57.571 207.59 57.571ZM207.59 57.1332C207.808 57.1332 207.987 57.0774 208.127 56.9659C208.268 56.8544 208.372 56.7078 208.439 56.526C208.507 56.3443 208.54 56.1474 208.54 55.9353C208.54 55.7233 208.507 55.5257 208.439 55.3426C208.372 55.1595 208.268 55.0115 208.127 54.8986C207.987 54.7857 207.808 54.7292 207.59 54.7292C207.373 54.7292 207.194 54.7857 207.053 54.8986C206.913 55.0115 206.809 55.1595 206.741 55.3426C206.674 55.5257 206.64 55.7233 206.64 55.9353C206.64 56.1474 206.674 56.3443 206.741 56.526C206.809 56.7078 206.913 56.8544 207.053 56.9659C207.194 57.0774 207.373 57.1332 207.59 57.1332ZM210.259 55.5966V57.505H209.772V54.3327H210.243V54.8283H210.284C210.358 54.6673 210.471 54.5378 210.623 54.4401C210.774 54.3409 210.97 54.2914 211.209 54.2914C211.424 54.2914 211.612 54.3354 211.773 54.4236C211.934 54.5103 212.059 54.6425 212.149 54.8201C212.238 54.9963 212.283 55.2194 212.283 55.4892V57.505H211.796V55.5223C211.796 55.2731 211.731 55.0789 211.602 54.9399C211.472 54.7994 211.295 54.7292 211.069 54.7292C210.913 54.7292 210.774 54.7629 210.652 54.8304C210.53 54.8979 210.435 54.9963 210.364 55.1257C210.294 55.2552 210.259 55.4121 210.259 55.5966Z" fill="#A6A8B1"/>
<path d="M166.193 125.387C166.193 155.317 141.93 179.58 112 179.58C82.07 179.58 57.8069 155.317 57.8069 125.387C57.8069 95.4572 82.07 71.1941 112 71.1941C141.93 71.1941 166.193 95.4572 166.193 125.387ZM87.8329 125.387C87.8329 138.734 98.6529 149.554 112 149.554C125.347 149.554 136.167 138.734 136.167 125.387C136.167 112.04 125.347 101.22 112 101.22C98.6529 101.22 87.8329 112.04 87.8329 125.387Z" fill="#EEF0FA"/>
<path d="M112.264 85.6287C112.264 82.6207 109.817 80.1485 106.831 80.5079C97.9432 81.5776 89.5246 85.2542 82.6677 91.1334C74.426 98.2001 68.9847 107.982 67.3277 118.712C65.6707 129.441 67.9075 140.409 73.6335 149.633C78.3972 157.307 85.3146 163.352 93.4653 167.053C96.2041 168.296 99.2832 166.678 100.191 163.81V163.81C101.098 160.942 99.4813 157.919 96.7913 156.573C91.1047 153.727 86.2789 149.35 82.8881 143.888C78.5338 136.874 76.833 128.533 78.093 120.374C79.353 112.215 83.4907 104.777 89.7581 99.4028C94.6388 95.218 100.56 92.5007 106.84 91.5031C109.811 91.0312 112.264 88.6366 112.264 85.6287V85.6287Z" fill="#FFD572"/>
<path d="M82.0221 99.4363C79.7492 97.4661 79.484 93.9978 81.7117 91.9766C85.218 88.7955 89.208 86.1738 93.5426 84.2153C97.8773 82.2569 102.482 80.9953 107.187 80.4666C110.176 80.1307 112.603 82.622 112.58 85.6299V85.6299C112.556 88.6378 110.084 91.0131 107.109 91.4615C103.982 91.9331 100.926 92.8327 98.0277 94.142C95.1299 95.4513 92.4346 97.1504 90.0137 99.1857C87.7113 101.121 84.295 101.407 82.0221 99.4363V99.4363Z" fill="#87A2FF"/>
<path d="M104.295 86.4301C103.696 83.4823 105.602 80.5725 108.6 80.3301C113.659 79.9211 118.763 80.3609 123.7 81.6437C130.398 83.3843 136.611 86.6313 141.865 91.137C147.119 95.6428 151.275 101.288 154.016 107.644C156.757 113.999 158.011 120.896 157.682 127.81C157.354 134.723 155.452 141.47 152.12 147.537C148.789 153.604 144.117 158.83 138.459 162.817C132.802 166.805 126.309 169.448 119.476 170.545C114.44 171.354 109.317 171.308 104.32 170.421C101.358 169.896 99.7365 166.818 100.612 163.941V163.941C101.488 161.063 104.532 159.486 107.512 159.9C110.9 160.37 114.35 160.336 117.748 159.79C122.945 158.956 127.882 156.946 132.184 153.914C136.486 150.881 140.039 146.907 142.572 142.294C145.105 137.681 146.552 132.55 146.802 127.293C147.052 122.035 146.098 116.791 144.014 111.958C141.929 107.125 138.769 102.832 134.774 99.4055C130.779 95.9792 126.054 93.5101 120.96 92.1864C117.629 91.321 114.198 90.9601 110.78 91.107C107.775 91.2361 104.894 89.3778 104.295 86.4301V86.4301Z" fill="#6439FF"/>
<g filter="url(#filter0_d_331_746)">
<rect x="166" y="160" width="185.227" height="228.179" rx="6.71113" fill="white"/>
<rect opacity="0.05" x="172.304" y="206.369" width="23.9202" height="95.5533" rx="1.85183" fill="url(#paint0_linear_331_746)"/>
<rect opacity="0.1" x="301.473" y="206.369" width="23.9202" height="95.5533" rx="1.85183" fill="#6439FF"/>
<rect opacity="0.05" x="198.138" y="206.369" width="23.9202" height="95.5533" rx="1.85183" fill="url(#paint1_linear_331_746)"/>
<rect opacity="0.05" x="327.307" y="206.369" width="23.9202" height="95.5533" rx="1.85183" fill="url(#paint2_linear_331_746)"/>
<rect opacity="0.05" x="223.972" y="206.369" width="23.9202" height="95.5533" rx="1.85183" fill="url(#paint3_linear_331_746)"/>
<rect opacity="0.05" x="249.806" y="206.369" width="23.9202" height="95.5533" rx="1.85183" fill="url(#paint4_linear_331_746)"/>
<rect opacity="0.05" x="275.639" y="206.369" width="23.9202" height="95.5533" rx="1.85183" fill="url(#paint5_linear_331_746)"/>
<path d="M218.535 184.857L219.267 183.843C219.709 184.303 220.395 184.688 221.259 184.688C221.992 184.688 222.349 184.341 222.349 183.984C222.349 183.514 221.804 183.354 221.081 183.185C220.057 182.95 218.741 182.668 218.741 181.268C218.741 180.225 219.643 179.38 221.118 179.38C222.114 179.38 222.941 179.68 223.561 180.254L222.819 181.231C222.312 180.761 221.635 180.545 221.024 180.545C220.423 180.545 220.104 180.808 220.104 181.184C220.104 181.607 220.63 181.738 221.353 181.907C222.387 182.142 223.702 182.452 223.702 183.843C223.702 184.989 222.885 185.853 221.194 185.853C219.991 185.853 219.127 185.449 218.535 184.857ZM227.297 185.741V185.271C226.987 185.637 226.451 185.853 225.86 185.853C225.136 185.853 224.281 185.365 224.281 184.35C224.281 183.288 225.136 182.903 225.86 182.903C226.461 182.903 226.996 183.091 227.297 183.457V182.828C227.297 182.368 226.902 182.067 226.301 182.067C225.813 182.067 225.362 182.245 224.976 182.602L224.525 181.804C225.08 181.315 225.794 181.09 226.508 181.09C227.541 181.09 228.49 181.503 228.49 182.809V185.741H227.297ZM227.297 184.651V184.087C227.1 183.824 226.724 183.692 226.339 183.692C225.869 183.692 225.484 183.946 225.484 184.378C225.484 184.801 225.869 185.045 226.339 185.045C226.724 185.045 227.1 184.914 227.297 184.651ZM229.674 185.741V179.474H230.867V185.741H229.674ZM231.759 183.467C231.759 182.151 232.727 181.09 234.108 181.09C235.461 181.09 236.382 182.104 236.382 183.589V183.852H233.009C233.084 184.425 233.544 184.904 234.315 184.904C234.737 184.904 235.235 184.735 235.527 184.453L236.053 185.224C235.592 185.647 234.888 185.853 234.183 185.853C232.802 185.853 231.759 184.923 231.759 183.467ZM234.108 182.039C233.366 182.039 233.046 182.593 232.99 183.044H235.226C235.198 182.612 234.897 182.039 234.108 182.039ZM236.849 185.149L237.366 184.312C237.694 184.623 238.371 184.933 238.935 184.933C239.451 184.933 239.696 184.754 239.696 184.472C239.696 184.153 239.301 184.04 238.784 183.937C238.005 183.786 236.999 183.598 236.999 182.518C236.999 181.757 237.666 181.09 238.86 181.09C239.63 181.09 240.241 181.353 240.682 181.71L240.213 182.527C239.94 182.236 239.423 182.001 238.869 182.001C238.437 182.001 238.155 182.161 238.155 182.424C238.155 182.706 238.512 182.809 239.019 182.913C239.799 183.063 240.842 183.27 240.842 184.397C240.842 185.233 240.137 185.853 238.878 185.853C238.089 185.853 237.328 185.59 236.849 185.149ZM244.153 185.741V179.474H247.085C248.447 179.474 249.189 180.394 249.189 181.494C249.189 182.584 248.438 183.495 247.085 183.495H245.487V185.741H244.153ZM247.827 181.484C247.827 180.968 247.432 180.62 246.906 180.62H245.487V182.349H246.906C247.432 182.349 247.827 182.011 247.827 181.484ZM249.541 183.467C249.541 182.151 250.509 181.09 251.89 181.09C253.243 181.09 254.163 182.104 254.163 183.589V183.852H250.79C250.866 184.425 251.326 184.904 252.096 184.904C252.519 184.904 253.017 184.735 253.308 184.453L253.835 185.224C253.374 185.647 252.67 185.853 251.965 185.853C250.584 185.853 249.541 184.923 249.541 183.467ZM251.89 182.039C251.147 182.039 250.828 182.593 250.772 183.044H253.008C252.98 182.612 252.679 182.039 251.89 182.039ZM255.025 185.741V181.203H256.219V181.823C256.538 181.419 257.102 181.099 257.666 181.099V182.264C257.581 182.245 257.468 182.236 257.337 182.236C256.942 182.236 256.416 182.452 256.219 182.743V185.741H255.025ZM258.674 185.741V182.245H257.923V181.203H258.674V180.958C258.674 179.972 259.313 179.38 260.206 179.38C260.544 179.38 260.854 179.455 261.07 179.568L260.826 180.413C260.722 180.348 260.581 180.319 260.441 180.319C260.102 180.319 259.877 180.545 259.877 180.977V181.203H260.798V182.245H259.877V185.741H258.674ZM263.589 185.853C262.096 185.853 261.194 184.763 261.194 183.467C261.194 182.18 262.096 181.09 263.589 181.09C265.093 181.09 265.995 182.18 265.995 183.467C265.995 184.763 265.093 185.853 263.589 185.853ZM263.589 184.792C264.332 184.792 264.755 184.181 264.755 183.467C264.755 182.762 264.332 182.151 263.589 182.151C262.847 182.151 262.434 182.762 262.434 183.467C262.434 184.181 262.847 184.792 263.589 184.792ZM266.88 185.741V181.203H268.073V181.823C268.393 181.419 268.956 181.099 269.52 181.099V182.264C269.436 182.245 269.323 182.236 269.191 182.236C268.797 182.236 268.271 182.452 268.073 182.743V185.741H266.88ZM275.894 185.741V182.875C275.894 182.452 275.706 182.151 275.217 182.151C274.794 182.151 274.447 182.433 274.278 182.678V185.741H273.075V182.875C273.075 182.452 272.887 182.151 272.398 182.151C271.985 182.151 271.637 182.433 271.459 182.687V185.741H270.266V181.203H271.459V181.794C271.647 181.522 272.248 181.09 272.943 181.09C273.611 181.09 274.033 181.4 274.202 181.917C274.466 181.503 275.067 181.09 275.762 181.09C276.598 181.09 277.096 181.531 277.096 182.462V185.741H275.894ZM280.991 185.741V185.271C280.681 185.637 280.146 185.853 279.554 185.853C278.83 185.853 277.975 185.365 277.975 184.35C277.975 183.288 278.83 182.903 279.554 182.903C280.155 182.903 280.691 183.091 280.991 183.457V182.828C280.991 182.368 280.597 182.067 279.995 182.067C279.507 182.067 279.056 182.245 278.671 182.602L278.22 181.804C278.774 181.315 279.488 181.09 280.202 181.09C281.236 181.09 282.185 181.503 282.185 182.809V185.741H280.991ZM280.991 184.651V184.087C280.794 183.824 280.418 183.692 280.033 183.692C279.563 183.692 279.178 183.946 279.178 184.378C279.178 184.801 279.563 185.045 280.033 185.045C280.418 185.045 280.794 184.914 280.991 184.651ZM286.431 185.741V182.997C286.431 182.368 286.102 182.151 285.595 182.151C285.125 182.151 284.759 182.415 284.561 182.687V185.741H283.368V181.203H284.561V181.794C284.853 181.447 285.407 181.09 286.149 181.09C287.145 181.09 287.624 181.654 287.624 182.537V185.741H286.431ZM288.518 183.467C288.518 182.076 289.523 181.09 290.923 181.09C291.853 181.09 292.417 181.494 292.718 181.917L291.938 182.64C291.722 182.33 291.393 182.151 290.979 182.151C290.256 182.151 289.749 182.678 289.749 183.467C289.749 184.256 290.256 184.792 290.979 184.792C291.393 184.792 291.722 184.604 291.938 184.303L292.718 185.027C292.417 185.449 291.853 185.853 290.923 185.853C289.523 185.853 288.518 184.867 288.518 183.467ZM293.206 183.467C293.206 182.151 294.174 181.09 295.555 181.09C296.908 181.09 297.829 182.104 297.829 183.589V183.852H294.456C294.531 184.425 294.992 184.904 295.762 184.904C296.185 184.904 296.683 184.735 296.974 184.453L297.5 185.224C297.04 185.647 296.335 185.853 295.631 185.853C294.249 185.853 293.206 184.923 293.206 183.467ZM295.555 182.039C294.813 182.039 294.494 182.593 294.437 183.044H296.673C296.645 182.612 296.345 182.039 295.555 182.039Z" fill="#1E265E"/>
<path d="M181.905 337.148L182.898 335.9C183.516 336.544 184.495 336.92 185.368 336.92C186.455 336.92 187.059 336.45 187.059 335.766C187.059 335.041 186.509 334.705 185.261 334.705C184.885 334.705 184.281 334.705 184.146 334.719V333.054C184.308 333.068 184.912 333.068 185.261 333.068C186.254 333.068 186.911 332.745 186.911 332.074C186.911 331.363 186.187 331.001 185.247 331.001C184.375 331.001 183.596 331.336 182.965 331.94L182.026 330.759C182.751 329.94 183.878 329.336 185.448 329.336C187.542 329.336 188.831 330.276 188.831 331.766C188.831 332.893 187.864 333.631 186.871 333.806C187.784 333.9 188.965 334.611 188.965 335.953C188.965 337.497 187.583 338.584 185.435 338.584C183.784 338.584 182.563 337.953 181.905 337.148ZM189.971 333.953C189.971 331.645 191.111 329.336 193.675 329.336C196.225 329.336 197.38 331.645 197.38 333.953C197.38 336.262 196.225 338.584 193.675 338.584C191.111 338.584 189.971 336.262 189.971 333.953ZM195.433 333.953C195.433 332.303 194.95 331.027 193.675 331.027C192.387 331.027 191.903 332.303 191.903 333.953C191.903 335.604 192.387 336.893 193.675 336.893C194.95 336.893 195.433 335.604 195.433 333.953ZM198.187 331.591C198.187 330.329 199.086 329.336 200.455 329.336C201.837 329.336 202.737 330.329 202.737 331.591C202.737 332.839 201.837 333.792 200.455 333.792C199.086 333.792 198.187 332.839 198.187 331.591ZM199.582 338.423L205.3 329.47H206.32L200.589 338.423H199.582ZM201.515 331.591C201.515 330.84 201.072 330.397 200.455 330.397C199.851 330.397 199.395 330.84 199.395 331.591C199.395 332.289 199.851 332.745 200.455 332.745C201.072 332.745 201.515 332.289 201.515 331.591ZM203.113 336.37C203.113 335.108 204.012 334.115 205.381 334.115C206.75 334.115 207.663 335.108 207.663 336.37C207.663 337.618 206.75 338.584 205.381 338.584C204.012 338.584 203.113 337.618 203.113 336.37ZM206.455 336.37C206.455 335.631 205.998 335.175 205.381 335.175C204.763 335.175 204.321 335.631 204.321 336.37C204.321 337.094 204.763 337.537 205.381 337.537C205.998 337.537 206.455 337.094 206.455 336.37Z" fill="#1E265E"/>
<path d="M214.183 331.423V329.152L212.065 326.052H212.846L214.513 328.548L216.18 326.052H216.961L214.851 329.152V331.423H214.183ZM218.314 331.52C217.13 331.52 216.389 330.602 216.389 329.474C216.389 328.347 217.13 327.437 218.314 327.437C219.498 327.437 220.239 328.347 220.239 329.474C220.239 330.602 219.498 331.52 218.314 331.52ZM218.314 330.98C219.144 330.98 219.603 330.271 219.603 329.474C219.603 328.685 219.144 327.976 218.314 327.976C217.485 327.976 217.018 328.685 217.018 329.474C217.018 330.271 217.485 330.98 218.314 330.98ZM223.849 331.423V330.875C223.551 331.214 223.044 331.52 222.464 331.52C221.65 331.52 221.224 331.125 221.224 330.28V327.533H221.828V330.094C221.828 330.779 222.174 330.98 222.697 330.98C223.172 330.98 223.623 330.706 223.849 330.392V327.533H224.453V331.423H223.849ZM225.659 331.423V327.533H226.263V328.162C226.577 327.751 227.028 327.453 227.56 327.453V328.073C227.487 328.057 227.415 328.049 227.318 328.049C226.948 328.049 226.44 328.355 226.263 328.669V331.423H225.659ZM230.055 330.908L230.37 330.473C230.627 330.771 231.118 331.028 231.65 331.028C232.246 331.028 232.568 330.763 232.568 330.384C232.568 329.957 232.093 329.82 231.569 329.692C230.909 329.539 230.16 329.361 230.16 328.556C230.16 327.952 230.684 327.437 231.61 327.437C232.27 327.437 232.737 327.686 233.051 328L232.769 328.419C232.536 328.137 232.109 327.928 231.61 327.928C231.078 327.928 230.748 328.17 230.748 328.516C230.748 328.894 231.191 329.015 231.698 329.136C232.375 329.289 233.156 329.482 233.156 330.344C233.156 330.996 232.633 331.52 231.626 331.52C230.99 331.52 230.45 331.326 230.055 330.908ZM236.569 331.423V330.98C236.247 331.335 235.804 331.52 235.281 331.52C234.62 331.52 233.92 331.077 233.92 330.231C233.92 329.361 234.62 328.951 235.281 328.951C235.812 328.951 236.255 329.12 236.569 329.482V328.782C236.569 328.258 236.151 327.96 235.587 327.96C235.12 327.96 234.741 328.129 234.395 328.5L234.113 328.081C234.532 327.646 235.031 327.437 235.667 327.437C236.489 327.437 237.173 327.807 237.173 328.749V331.423H236.569ZM236.569 330.602V329.869C236.336 329.547 235.925 329.386 235.498 329.386C234.935 329.386 234.54 329.74 234.54 330.239C234.54 330.731 234.935 331.085 235.498 331.085C235.925 331.085 236.336 330.924 236.569 330.602ZM238.384 331.423V326.052H238.988V331.423H238.384ZM239.967 329.474C239.967 328.347 240.773 327.437 241.884 327.437C243.06 327.437 243.753 328.355 243.753 329.523V329.676H240.604C240.652 330.408 241.167 331.02 242.005 331.02C242.448 331.02 242.899 330.843 243.205 330.529L243.495 330.924C243.108 331.31 242.585 331.52 241.949 331.52C240.797 331.52 239.967 330.69 239.967 329.474ZM241.876 327.936C241.047 327.936 240.636 328.637 240.604 329.233H243.157C243.149 328.653 242.762 327.936 241.876 327.936ZM244.393 330.908L244.707 330.473C244.964 330.771 245.456 331.028 245.987 331.028C246.583 331.028 246.905 330.763 246.905 330.384C246.905 329.957 246.43 329.82 245.907 329.692C245.246 329.539 244.497 329.361 244.497 328.556C244.497 327.952 245.021 327.437 245.947 327.437C246.607 327.437 247.074 327.686 247.388 328L247.107 328.419C246.873 328.137 246.446 327.928 245.947 327.928C245.415 327.928 245.085 328.17 245.085 328.516C245.085 328.894 245.528 329.015 246.035 329.136C246.712 329.289 247.493 329.482 247.493 330.344C247.493 330.996 246.97 331.52 245.963 331.52C245.327 331.52 244.787 331.326 244.393 330.908ZM251.155 332.905H250.551V327.533H251.155V328.113C251.437 327.719 251.92 327.437 252.467 327.437C253.49 327.437 254.199 328.21 254.199 329.474C254.199 330.731 253.49 331.52 252.467 331.52C251.936 331.52 251.469 331.27 251.155 330.835V332.905ZM253.563 329.474C253.563 328.612 253.096 327.976 252.314 327.976C251.839 327.976 251.364 328.258 251.155 328.596V330.352C251.364 330.69 251.839 330.98 252.314 330.98C253.096 330.98 253.563 330.336 253.563 329.474ZM254.95 329.474C254.95 328.347 255.755 327.437 256.866 327.437C258.042 327.437 258.735 328.355 258.735 329.523V329.676H255.586C255.634 330.408 256.15 331.02 256.987 331.02C257.43 331.02 257.881 330.843 258.187 330.529L258.477 330.924C258.09 331.31 257.567 331.52 256.931 331.52C255.779 331.52 254.95 330.69 254.95 329.474ZM256.858 327.936C256.029 327.936 255.618 328.637 255.586 329.233H258.139C258.131 328.653 257.744 327.936 256.858 327.936ZM259.713 331.423V327.533H260.317V328.162C260.631 327.751 261.082 327.453 261.614 327.453V328.073C261.541 328.057 261.469 328.049 261.372 328.049C261.001 328.049 260.494 328.355 260.317 328.669V331.423H259.713ZM262.54 331.423V328.065H261.896V327.533H262.54V327.235C262.54 326.43 262.991 325.971 263.668 325.971C263.893 325.971 264.103 326.011 264.256 326.108L264.103 326.559C264.006 326.503 263.893 326.47 263.756 326.47C263.362 326.47 263.144 326.744 263.144 327.235V327.533H263.934V328.065H263.144V331.423H262.54ZM266.351 331.52C265.167 331.52 264.426 330.602 264.426 329.474C264.426 328.347 265.167 327.437 266.351 327.437C267.535 327.437 268.276 328.347 268.276 329.474C268.276 330.602 267.535 331.52 266.351 331.52ZM266.351 330.98C267.181 330.98 267.64 330.271 267.64 329.474C267.64 328.685 267.181 327.976 266.351 327.976C265.522 327.976 265.055 328.685 265.055 329.474C265.055 330.271 265.522 330.98 266.351 330.98ZM269.261 331.423V327.533H269.865V328.162C270.179 327.751 270.63 327.453 271.161 327.453V328.073C271.089 328.057 271.016 328.049 270.92 328.049C270.549 328.049 270.042 328.355 269.865 328.669V331.423H269.261ZM276.614 331.423V328.782C276.614 328.29 276.396 327.976 275.897 327.976C275.494 327.976 275.068 328.266 274.866 328.572V331.423H274.262V328.782C274.262 328.29 274.053 327.976 273.546 327.976C273.151 327.976 272.732 328.266 272.523 328.58V331.423H271.919V327.533H272.523V328.097C272.684 327.847 273.207 327.437 273.779 327.437C274.375 327.437 274.713 327.759 274.826 328.162C275.044 327.807 275.567 327.437 276.131 327.437C276.839 327.437 277.218 327.831 277.218 328.612V331.423H276.614ZM280.855 331.423V330.98C280.533 331.335 280.09 331.52 279.566 331.52C278.906 331.52 278.205 331.077 278.205 330.231C278.205 329.361 278.906 328.951 279.566 328.951C280.098 328.951 280.541 329.12 280.855 329.482V328.782C280.855 328.258 280.436 327.96 279.872 327.96C279.405 327.96 279.027 328.129 278.681 328.5L278.399 328.081C278.817 327.646 279.317 327.437 279.953 327.437C280.774 327.437 281.459 327.807 281.459 328.749V331.423H280.855ZM280.855 330.602V329.869C280.621 329.547 280.211 329.386 279.784 329.386C279.22 329.386 278.826 329.74 278.826 330.239C278.826 330.731 279.22 331.085 279.784 331.085C280.211 331.085 280.621 330.924 280.855 330.602ZM285.295 331.423V328.878C285.295 328.194 284.949 327.976 284.425 327.976C283.95 327.976 283.499 328.266 283.274 328.58V331.423H282.67V327.533H283.274V328.097C283.548 327.775 284.079 327.437 284.659 327.437C285.472 327.437 285.899 327.847 285.899 328.693V331.423H285.295ZM286.88 329.474C286.88 328.323 287.661 327.437 288.821 327.437C289.529 327.437 289.948 327.727 290.246 328.113L289.844 328.484C289.586 328.129 289.256 327.976 288.853 327.976C288.023 327.976 287.508 328.612 287.508 329.474C287.508 330.336 288.023 330.98 288.853 330.98C289.256 330.98 289.586 330.819 289.844 330.473L290.246 330.843C289.948 331.23 289.529 331.52 288.821 331.52C287.661 331.52 286.88 330.634 286.88 329.474ZM290.867 329.474C290.867 328.347 291.673 327.437 292.784 327.437C293.96 327.437 294.652 328.355 294.652 329.523V329.676H291.503C291.552 330.408 292.067 331.02 292.905 331.02C293.348 331.02 293.799 330.843 294.105 330.529L294.395 330.924C294.008 331.31 293.485 331.52 292.848 331.52C291.697 331.52 290.867 330.69 290.867 329.474ZM292.776 327.936C291.946 327.936 291.536 328.637 291.503 329.233H294.056C294.048 328.653 293.662 327.936 292.776 327.936ZM298.005 326.881C297.787 326.881 297.602 326.696 297.602 326.47C297.602 326.245 297.787 326.068 298.005 326.068C298.23 326.068 298.416 326.245 298.416 326.47C298.416 326.696 298.23 326.881 298.005 326.881ZM297.707 331.423V327.533H298.311V331.423H297.707ZM299.177 330.908L299.492 330.473C299.749 330.771 300.241 331.028 300.772 331.028C301.368 331.028 301.69 330.763 301.69 330.384C301.69 329.957 301.215 329.82 300.691 329.692C300.031 329.539 299.282 329.361 299.282 328.556C299.282 327.952 299.806 327.437 300.732 327.437C301.392 327.437 301.859 327.686 302.173 328L301.891 328.419C301.658 328.137 301.231 327.928 300.732 327.928C300.2 327.928 299.87 328.17 299.87 328.516C299.87 328.894 300.313 329.015 300.82 329.136C301.497 329.289 302.278 329.482 302.278 330.344C302.278 330.996 301.755 331.52 300.748 331.52C300.112 331.52 299.572 331.326 299.177 330.908ZM304.965 330.634L305.36 330.215C305.674 330.634 306.221 330.924 306.858 330.924C307.639 330.924 308.114 330.537 308.114 329.917C308.114 329.249 307.566 328.967 306.777 328.967C306.552 328.967 306.302 328.967 306.221 328.975V328.363C306.31 328.371 306.56 328.371 306.777 328.371C307.454 328.371 308.025 328.105 308.025 327.485C308.025 326.889 307.478 326.567 306.825 326.567C306.237 326.567 305.803 326.792 305.408 327.219L305.038 326.8C305.424 326.333 306.044 325.971 306.874 325.971C307.905 325.971 308.694 326.494 308.694 327.404C308.694 328.178 308.041 328.564 307.534 328.653C308.025 328.693 308.774 329.112 308.774 329.974C308.774 330.867 308.058 331.52 306.874 331.52C305.964 331.52 305.295 331.117 304.965 330.634ZM309.625 328.741C309.625 327.429 310.205 325.971 311.679 325.971C313.144 325.971 313.732 327.429 313.732 328.741C313.732 330.046 313.144 331.52 311.679 331.52C310.205 331.52 309.625 330.046 309.625 328.741ZM313.048 328.741C313.048 327.67 312.701 326.567 311.679 326.567C310.656 326.567 310.31 327.67 310.31 328.741C310.31 329.812 310.656 330.924 311.679 330.924C312.701 330.924 313.048 329.812 313.048 328.741ZM314.395 327.308C314.395 326.551 314.919 325.971 315.684 325.971C316.457 325.971 316.988 326.551 316.988 327.308C316.988 328.057 316.457 328.621 315.684 328.621C314.919 328.621 314.395 328.057 314.395 327.308ZM315.176 331.423L318.607 326.052H319.05L315.611 331.423H315.176ZM316.505 327.308C316.505 326.776 316.167 326.382 315.684 326.382C315.208 326.382 314.878 326.776 314.878 327.308C314.878 327.815 315.208 328.218 315.684 328.218C316.167 328.218 316.505 327.815 316.505 327.308ZM317.198 330.207C317.198 329.45 317.721 328.87 318.486 328.87C319.251 328.87 319.783 329.45 319.783 330.207C319.783 330.956 319.251 331.52 318.486 331.52C317.721 331.52 317.198 330.956 317.198 330.207ZM319.308 330.207C319.308 329.676 318.969 329.281 318.486 329.281C318.003 329.281 317.673 329.676 317.673 330.207C317.673 330.714 318.003 331.117 318.486 331.117C318.969 331.117 319.308 330.714 319.308 330.207ZM212.596 339.423V334.052H213.2V336.121C213.514 335.694 213.981 335.437 214.513 335.437C215.527 335.437 216.244 336.242 216.244 337.482C216.244 338.747 215.527 339.52 214.513 339.52C213.965 339.52 213.49 339.238 213.2 338.843V339.423H212.596ZM213.2 338.368C213.409 338.706 213.885 338.98 214.36 338.98C215.149 338.98 215.616 338.344 215.616 337.482C215.616 336.621 215.149 335.976 214.36 335.976C213.885 335.976 213.409 336.266 213.2 336.604V338.368ZM217.003 337.474C217.003 336.347 217.808 335.437 218.92 335.437C220.095 335.437 220.788 336.355 220.788 337.523V337.676H217.639C217.687 338.408 218.203 339.02 219.04 339.02C219.483 339.02 219.934 338.843 220.24 338.529L220.53 338.924C220.144 339.31 219.62 339.52 218.984 339.52C217.832 339.52 217.003 338.69 217.003 337.474ZM218.911 335.936C218.082 335.936 217.671 336.637 217.639 337.233H220.192C220.184 336.653 219.797 335.936 218.911 335.936ZM222.749 339.52C222.177 339.52 221.887 339.19 221.887 338.61V336.065H221.243V335.533H221.887V334.47H222.491V335.533H223.28V336.065H222.491V338.481C222.491 338.771 222.62 338.98 222.886 338.98C223.055 338.98 223.216 338.908 223.296 338.819L223.474 339.27C223.32 339.415 223.103 339.52 222.749 339.52ZM225.116 339.52C224.544 339.52 224.254 339.19 224.254 338.61V336.065H223.61V335.533H224.254V334.47H224.858V335.533H225.647V336.065H224.858V338.481C224.858 338.771 224.987 338.98 225.253 338.98C225.422 338.98 225.583 338.908 225.664 338.819L225.841 339.27C225.688 339.415 225.47 339.52 225.116 339.52ZM226.275 337.474C226.275 336.347 227.081 335.437 228.192 335.437C229.368 335.437 230.06 336.355 230.06 337.523V337.676H226.911C226.96 338.408 227.475 339.02 228.313 339.02C228.756 339.02 229.207 338.843 229.513 338.529L229.803 338.924C229.416 339.31 228.893 339.52 228.256 339.52C227.105 339.52 226.275 338.69 226.275 337.474ZM228.184 335.936C227.354 335.936 226.944 336.637 226.911 337.233H229.464C229.456 336.653 229.07 335.936 228.184 335.936ZM231.039 339.423V335.533H231.643V336.162C231.957 335.751 232.408 335.453 232.939 335.453V336.073C232.867 336.057 232.794 336.049 232.698 336.049C232.327 336.049 231.82 336.355 231.643 336.669V339.423H231.039ZM235.548 337.474C235.548 336.323 236.329 335.437 237.488 335.437C238.197 335.437 238.616 335.727 238.914 336.113L238.511 336.484C238.253 336.129 237.923 335.976 237.521 335.976C236.691 335.976 236.176 336.612 236.176 337.474C236.176 338.336 236.691 338.98 237.521 338.98C237.923 338.98 238.253 338.819 238.511 338.473L238.914 338.843C238.616 339.23 238.197 339.52 237.488 339.52C236.329 339.52 235.548 338.634 235.548 337.474ZM241.46 339.52C240.276 339.52 239.535 338.602 239.535 337.474C239.535 336.347 240.276 335.437 241.46 335.437C242.644 335.437 243.384 336.347 243.384 337.474C243.384 338.602 242.644 339.52 241.46 339.52ZM241.46 338.98C242.289 338.98 242.748 338.271 242.748 337.474C242.748 336.685 242.289 335.976 241.46 335.976C240.63 335.976 240.163 336.685 240.163 337.474C240.163 338.271 240.63 338.98 241.46 338.98ZM249.064 339.423V336.782C249.064 336.29 248.847 335.976 248.347 335.976C247.945 335.976 247.518 336.266 247.317 336.572V339.423H246.713V336.782C246.713 336.29 246.503 335.976 245.996 335.976C245.601 335.976 245.182 336.266 244.973 336.58V339.423H244.369V335.533H244.973V336.097C245.134 335.847 245.658 335.437 246.229 335.437C246.825 335.437 247.164 335.759 247.276 336.162C247.494 335.807 248.017 335.437 248.581 335.437C249.29 335.437 249.668 335.831 249.668 336.612V339.423H249.064ZM251.477 340.905H250.873V335.533H251.477V336.113C251.759 335.719 252.242 335.437 252.79 335.437C253.813 335.437 254.521 336.21 254.521 337.474C254.521 338.731 253.813 339.52 252.79 339.52C252.258 339.52 251.791 339.27 251.477 338.835V340.905ZM253.885 337.474C253.885 336.612 253.418 335.976 252.637 335.976C252.162 335.976 251.687 336.258 251.477 336.596V338.352C251.687 338.69 252.162 338.98 252.637 338.98C253.418 338.98 253.885 338.336 253.885 337.474ZM257.93 339.423V338.98C257.607 339.335 257.165 339.52 256.641 339.52C255.981 339.52 255.28 339.077 255.28 338.231C255.28 337.361 255.981 336.951 256.641 336.951C257.173 336.951 257.616 337.12 257.93 337.482V336.782C257.93 336.258 257.511 335.96 256.947 335.96C256.48 335.96 256.102 336.129 255.755 336.5L255.473 336.081C255.892 335.646 256.391 335.437 257.028 335.437C257.849 335.437 258.534 335.807 258.534 336.749V339.423H257.93ZM257.93 338.602V337.869C257.696 337.547 257.285 337.386 256.859 337.386C256.295 337.386 255.9 337.74 255.9 338.239C255.9 338.731 256.295 339.085 256.859 339.085C257.285 339.085 257.696 338.924 257.93 338.602ZM259.744 339.423V335.533H260.348V336.162C260.662 335.751 261.113 335.453 261.645 335.453V336.073C261.573 336.057 261.5 336.049 261.403 336.049C261.033 336.049 260.526 336.355 260.348 336.669V339.423H259.744ZM262.177 337.474C262.177 336.347 262.982 335.437 264.094 335.437C265.27 335.437 265.962 336.355 265.962 337.523V337.676H262.813C262.862 338.408 263.377 339.02 264.215 339.02C264.658 339.02 265.109 338.843 265.415 338.529L265.705 338.924C265.318 339.31 264.794 339.52 264.158 339.52C263.007 339.52 262.177 338.69 262.177 337.474ZM264.086 335.936C263.256 335.936 262.846 336.637 262.813 337.233H265.366C265.358 336.653 264.972 335.936 264.086 335.936ZM269.999 339.52C269.427 339.52 269.138 339.19 269.138 338.61V336.065H268.493V335.533H269.138V334.47H269.742V335.533H270.531V336.065H269.742V338.481C269.742 338.771 269.87 338.98 270.136 338.98C270.305 338.98 270.466 338.908 270.547 338.819L270.724 339.27C270.571 339.415 270.354 339.52 269.999 339.52ZM273.083 339.52C271.899 339.52 271.159 338.602 271.159 337.474C271.159 336.347 271.899 335.437 273.083 335.437C274.267 335.437 275.008 336.347 275.008 337.474C275.008 338.602 274.267 339.52 273.083 339.52ZM273.083 338.98C273.913 338.98 274.372 338.271 274.372 337.474C274.372 336.685 273.913 335.976 273.083 335.976C272.254 335.976 271.787 336.685 271.787 337.474C271.787 338.271 272.254 338.98 273.083 338.98ZM278.069 339.423V334.052H278.673V339.423H278.069ZM282.31 339.423V338.98C281.988 339.335 281.545 339.52 281.021 339.52C280.361 339.52 279.66 339.077 279.66 338.231C279.66 337.361 280.361 336.951 281.021 336.951C281.553 336.951 281.996 337.12 282.31 337.482V336.782C282.31 336.258 281.891 335.96 281.327 335.96C280.86 335.96 280.482 336.129 280.135 336.5L279.854 336.081C280.272 335.646 280.772 335.437 281.408 335.437C282.229 335.437 282.914 335.807 282.914 336.749V339.423H282.31ZM282.31 338.602V337.869C282.076 337.547 281.666 337.386 281.239 337.386C280.675 337.386 280.28 337.74 280.28 338.239C280.28 338.731 280.675 339.085 281.239 339.085C281.666 339.085 282.076 338.924 282.31 338.602ZM283.786 338.908L284.101 338.473C284.358 338.771 284.849 339.028 285.381 339.028C285.977 339.028 286.299 338.763 286.299 338.384C286.299 337.957 285.824 337.82 285.3 337.692C284.64 337.539 283.891 337.361 283.891 336.556C283.891 335.952 284.415 335.437 285.341 335.437C286.001 335.437 286.468 335.686 286.782 336L286.5 336.419C286.267 336.137 285.84 335.928 285.341 335.928C284.809 335.928 284.479 336.17 284.479 336.516C284.479 336.894 284.922 337.015 285.429 337.136C286.106 337.289 286.887 337.482 286.887 338.344C286.887 338.996 286.364 339.52 285.357 339.52C284.721 339.52 284.181 339.326 283.786 338.908ZM288.851 339.52C288.279 339.52 287.989 339.19 287.989 338.61V336.065H287.345V335.533H287.989V334.47H288.593V335.533H289.382V336.065H288.593V338.481C288.593 338.771 288.722 338.98 288.988 338.98C289.157 338.98 289.318 338.908 289.398 338.819L289.576 339.27C289.423 339.415 289.205 339.52 288.851 339.52ZM297.007 339.423V336.782C297.007 336.29 296.789 335.976 296.29 335.976C295.887 335.976 295.461 336.266 295.259 336.572V339.423H294.655V336.782C294.655 336.29 294.446 335.976 293.939 335.976C293.544 335.976 293.125 336.266 292.916 336.58V339.423H292.312V335.533H292.916V336.097C293.077 335.847 293.6 335.437 294.172 335.437C294.768 335.437 295.106 335.759 295.219 336.162C295.436 335.807 295.96 335.437 296.524 335.437C297.232 335.437 297.611 335.831 297.611 336.612V339.423H297.007ZM300.515 339.52C299.331 339.52 298.59 338.602 298.59 337.474C298.59 336.347 299.331 335.437 300.515 335.437C301.699 335.437 302.44 336.347 302.44 337.474C302.44 338.602 301.699 339.52 300.515 339.52ZM300.515 338.98C301.345 338.98 301.804 338.271 301.804 337.474C301.804 336.685 301.345 335.976 300.515 335.976C299.686 335.976 299.218 336.685 299.218 337.474C299.218 338.271 299.686 338.98 300.515 338.98ZM306.05 339.423V336.878C306.05 336.194 305.704 335.976 305.18 335.976C304.705 335.976 304.254 336.266 304.028 336.58V339.423H303.424V335.533H304.028V336.097C304.302 335.775 304.834 335.437 305.414 335.437C306.227 335.437 306.654 335.847 306.654 336.693V339.423H306.05ZM308.843 339.52C308.271 339.52 307.981 339.19 307.981 338.61V336.065H307.337V335.533H307.981V334.47H308.585V335.533H309.374V336.065H308.585V338.481C308.585 338.771 308.714 338.98 308.979 338.98C309.149 338.98 309.31 338.908 309.39 338.819L309.567 339.27C309.414 339.415 309.197 339.52 308.843 339.52ZM312.861 339.423V336.862C312.861 336.178 312.506 335.976 311.983 335.976C311.516 335.976 311.065 336.266 310.831 336.58V339.423H310.227V334.052H310.831V336.097C311.105 335.775 311.637 335.437 312.225 335.437C313.038 335.437 313.465 335.831 313.465 336.677V339.423H312.861Z" fill="#767676"/>
<rect x="201.162" y="350.722" width="114.76" height="24.8312" rx="3.35557" fill="#6439FF"/>
<path d="M244.162 365.637V359.37H246.633C248.597 359.37 249.959 360.62 249.959 362.508C249.959 364.397 248.597 365.637 246.633 365.637H244.162ZM245.496 364.463H246.633C247.873 364.463 248.597 363.57 248.597 362.508C248.597 361.4 247.92 360.545 246.633 360.545H245.496V364.463ZM250.586 363.363C250.586 362.048 251.554 360.986 252.935 360.986C254.288 360.986 255.209 362.001 255.209 363.486V363.749H251.836C251.911 364.322 252.372 364.801 253.142 364.801C253.565 364.801 254.063 364.632 254.354 364.35L254.88 365.12C254.42 365.543 253.715 365.75 253.01 365.75C251.629 365.75 250.586 364.82 250.586 363.363ZM252.935 361.935C252.193 361.935 251.874 362.49 251.817 362.941H254.053C254.025 362.508 253.725 361.935 252.935 361.935ZM257.593 365.75C256.757 365.75 256.306 365.318 256.306 364.51V362.142H255.554V361.099H256.306V359.859H257.508V361.099H258.429V362.142H257.508V364.19C257.508 364.472 257.659 364.688 257.922 364.688C258.1 364.688 258.269 364.622 258.335 364.557L258.589 365.459C258.41 365.618 258.091 365.75 257.593 365.75ZM261.97 365.637V365.167C261.66 365.534 261.125 365.75 260.533 365.75C259.809 365.75 258.954 365.261 258.954 364.247C258.954 363.185 259.809 362.8 260.533 362.8C261.134 362.8 261.67 362.988 261.97 363.354V362.725C261.97 362.264 261.576 361.963 260.974 361.963C260.486 361.963 260.035 362.142 259.65 362.499L259.199 361.7C259.753 361.212 260.467 360.986 261.181 360.986C262.215 360.986 263.164 361.4 263.164 362.706V365.637H261.97ZM261.97 364.547V363.984C261.773 363.72 261.397 363.589 261.012 363.589C260.542 363.589 260.157 363.843 260.157 364.275C260.157 364.698 260.542 364.942 261.012 364.942C261.397 364.942 261.773 364.81 261.97 364.547ZM264.939 360.432C264.554 360.432 264.225 360.113 264.225 359.718C264.225 359.323 264.554 359.004 264.939 359.004C265.334 359.004 265.653 359.323 265.653 359.718C265.653 360.113 265.334 360.432 264.939 360.432ZM264.347 365.637V361.099H265.54V365.637H264.347ZM266.724 365.637V359.37H267.917V365.637H266.724ZM268.705 365.045L269.222 364.209C269.551 364.519 270.227 364.829 270.791 364.829C271.308 364.829 271.552 364.651 271.552 364.369C271.552 364.049 271.158 363.937 270.641 363.833C269.861 363.683 268.856 363.495 268.856 362.414C268.856 361.653 269.523 360.986 270.716 360.986C271.486 360.986 272.097 361.249 272.539 361.606L272.069 362.424C271.796 362.133 271.28 361.898 270.725 361.898C270.293 361.898 270.011 362.057 270.011 362.321C270.011 362.602 270.368 362.706 270.876 362.809C271.656 362.959 272.698 363.166 272.698 364.294C272.698 365.13 271.994 365.75 270.735 365.75C269.946 365.75 269.185 365.487 268.705 365.045Z" fill="white"/>
<path d="M178.633 309.584L178.922 309.161C179.116 309.396 179.378 309.604 179.767 309.604C180.318 309.604 180.667 309.221 180.667 308.664V305.544H181.224V308.671C181.224 309.644 180.6 310.101 179.801 310.101C179.325 310.101 178.942 309.946 178.633 309.584ZM184.275 310.02V309.651C184.006 309.946 183.637 310.101 183.201 310.101C182.651 310.101 182.067 309.731 182.067 309.027C182.067 308.302 182.651 307.96 183.201 307.96C183.644 307.96 184.013 308.101 184.275 308.403V307.819C184.275 307.383 183.926 307.134 183.456 307.134C183.067 307.134 182.751 307.275 182.463 307.584L182.228 307.235C182.577 306.873 182.993 306.698 183.523 306.698C184.208 306.698 184.778 307.007 184.778 307.792V310.02H184.275ZM184.275 309.336V308.725C184.08 308.456 183.738 308.322 183.382 308.322C182.912 308.322 182.584 308.617 182.584 309.034C182.584 309.443 182.912 309.738 183.382 309.738C183.738 309.738 184.08 309.604 184.275 309.336ZM187.975 310.02V307.899C187.975 307.329 187.686 307.148 187.25 307.148C186.854 307.148 186.478 307.389 186.29 307.651V310.02H185.787V306.779H186.29V307.248C186.519 306.98 186.961 306.698 187.445 306.698C188.123 306.698 188.478 307.04 188.478 307.745V310.02H187.975Z" fill="#2E2E30"/>
<path d="M233.905 310.02V306.295L232.381 310.02H232.153L230.637 306.295V310.02H230.079V305.544H230.878L232.267 308.953L233.663 305.544H234.462V310.02H233.905ZM237.513 310.02V309.651C237.244 309.946 236.875 310.101 236.439 310.101C235.889 310.101 235.305 309.731 235.305 309.027C235.305 308.302 235.889 307.96 236.439 307.96C236.882 307.96 237.251 308.101 237.513 308.403V307.819C237.513 307.383 237.164 307.134 236.694 307.134C236.305 307.134 235.989 307.275 235.701 307.584L235.466 307.235C235.815 306.873 236.231 306.698 236.761 306.698C237.446 306.698 238.016 307.007 238.016 307.792V310.02H237.513ZM237.513 309.336V308.725C237.318 308.456 236.976 308.322 236.62 308.322C236.15 308.322 235.821 308.617 235.821 309.034C235.821 309.443 236.15 309.738 236.62 309.738C236.976 309.738 237.318 309.604 237.513 309.336ZM239.025 310.02V306.779H239.528V307.302C239.79 306.96 240.166 306.711 240.609 306.711V307.228C240.548 307.215 240.488 307.208 240.408 307.208C240.099 307.208 239.676 307.463 239.528 307.725V310.02H239.025Z" fill="#2E2E30"/>
<path d="M285.237 310.02V306.295L283.713 310.02H283.485L281.969 306.295V310.02H281.412V305.544H282.21L283.599 308.953L284.995 305.544H285.794V310.02H285.237ZM288.845 310.02V309.651C288.576 309.946 288.207 310.101 287.771 310.101C287.221 310.101 286.637 309.731 286.637 309.027C286.637 308.302 287.221 307.96 287.771 307.96C288.214 307.96 288.583 308.101 288.845 308.403V307.819C288.845 307.383 288.496 307.134 288.026 307.134C287.637 307.134 287.321 307.275 287.033 307.584L286.798 307.235C287.147 306.873 287.563 306.698 288.093 306.698C288.778 306.698 289.348 307.007 289.348 307.792V310.02H288.845ZM288.845 309.336V308.725C288.65 308.456 288.308 308.322 287.952 308.322C287.482 308.322 287.154 308.617 287.154 309.034C287.154 309.443 287.482 309.738 287.952 309.738C288.308 309.738 288.65 309.604 288.845 309.336ZM290.256 310.832C290.33 310.866 290.451 310.886 290.532 310.886C290.753 310.886 290.901 310.812 291.015 310.544L291.229 310.054L289.874 306.779H290.417L291.498 309.436L292.572 306.779H293.122L291.498 310.678C291.303 311.148 290.974 311.329 290.545 311.335C290.438 311.335 290.27 311.315 290.176 311.288L290.256 310.832Z" fill="#2E2E30"/>
<path d="M334.643 309.584L334.932 309.161C335.126 309.396 335.388 309.604 335.777 309.604C336.328 309.604 336.677 309.221 336.677 308.664V305.544H337.234V308.671C337.234 309.644 336.609 310.101 335.811 310.101C335.334 310.101 334.952 309.946 334.643 309.584ZM340.446 310.02V309.564C340.197 309.846 339.774 310.101 339.291 310.101C338.613 310.101 338.258 309.772 338.258 309.067V306.779H338.761V308.913C338.761 309.483 339.05 309.651 339.486 309.651C339.882 309.651 340.258 309.423 340.446 309.161V306.779H340.949V310.02H340.446ZM341.954 310.02V305.544H342.457V310.02H341.954Z" fill="#314CFF"/>
<path d="M182.923 251.645C187.076 231.086 198.996 199.811 213.45 239.185C227.904 278.559 237.332 255.591 240.239 239.185C246.884 237.731 260.674 239.309 262.667 257.252C264.661 275.194 280.111 256.837 287.587 245.415C291.41 239.575 309.891 249.153 314.376 261.613C318.862 274.073 333.274 281.341 339.92 283.418" stroke="#6439FF" stroke-width="1.34223"/>
<g filter="url(#filter1_d_331_746)">
<rect x="254" y="227" width="87.0868" height="12.3715" rx="3.35557" fill="white" shape-rendering="crispEdges"/>
<path d="M263.852 235.186V234.26H261.711V233.508L263.49 230.709H264.805V233.421H265.382V234.26H264.805V235.186H263.852ZM263.852 231.555L262.644 233.421H263.852V231.555ZM265.877 234.595L266.4 233.951C266.709 234.266 267.125 234.434 267.595 234.434C268.125 234.434 268.427 234.132 268.427 233.763C268.427 233.354 268.132 233.078 267.622 233.078C267.252 233.078 266.95 233.193 266.682 233.448L266.018 233.266V230.709H269.091V231.528H266.95V232.649C267.185 232.441 267.548 232.28 267.957 232.28C268.715 232.28 269.393 232.817 269.393 233.723C269.393 234.669 268.682 235.266 267.601 235.266C266.823 235.266 266.259 235.011 265.877 234.595ZM269.859 232.951C269.859 231.797 270.429 230.642 271.711 230.642C272.986 230.642 273.564 231.797 273.564 232.951C273.564 234.105 272.986 235.266 271.711 235.266C270.429 235.266 269.859 234.105 269.859 232.951ZM272.59 232.951C272.59 232.125 272.349 231.488 271.711 231.488C271.067 231.488 270.825 232.125 270.825 232.951C270.825 233.776 271.067 234.421 271.711 234.421C272.349 234.421 272.59 233.776 272.59 232.951ZM274.021 232.951C274.021 231.797 274.591 230.642 275.873 230.642C277.148 230.642 277.725 231.797 277.725 232.951C277.725 234.105 277.148 235.266 275.873 235.266C274.591 235.266 274.021 234.105 274.021 232.951ZM276.752 232.951C276.752 232.125 276.511 231.488 275.873 231.488C275.229 231.488 274.987 232.125 274.987 232.951C274.987 233.776 275.229 234.421 275.873 234.421C276.511 234.421 276.752 233.776 276.752 232.951ZM278.27 232.441C278.27 232.146 278.518 231.897 278.813 231.897C279.109 231.897 279.357 232.146 279.357 232.441C279.357 232.736 279.109 232.984 278.813 232.984C278.518 232.984 278.27 232.736 278.27 232.441ZM278.27 234.716C278.27 234.421 278.518 234.172 278.813 234.172C279.109 234.172 279.357 234.421 279.357 234.716C279.357 235.011 279.109 235.26 278.813 235.26C278.518 235.26 278.27 235.011 278.27 234.716Z" fill="#1E265E"/>
<path d="M281.799 235.186V230.709H282.752V234.347H284.644V235.186H281.799ZM286.723 235.266C285.655 235.266 285.011 234.488 285.011 233.562C285.011 232.642 285.655 231.864 286.723 231.864C287.796 231.864 288.441 232.642 288.441 233.562C288.441 234.488 287.796 235.266 286.723 235.266ZM286.723 234.508C287.253 234.508 287.555 234.072 287.555 233.562C287.555 233.058 287.253 232.622 286.723 232.622C286.192 232.622 285.897 233.058 285.897 233.562C285.897 234.072 286.192 234.508 286.723 234.508ZM291.918 235.186L291.234 232.978L290.549 235.186H289.637L288.65 231.944H289.536L290.14 234.125L290.851 231.944H291.61L292.321 234.125L292.925 231.944H293.811L292.824 235.186H291.918ZM295.666 234.763L296.035 234.166C296.27 234.387 296.753 234.609 297.156 234.609C297.525 234.609 297.699 234.481 297.699 234.28C297.699 234.052 297.418 233.971 297.048 233.897C296.491 233.79 295.773 233.656 295.773 232.884C295.773 232.34 296.25 231.864 297.102 231.864C297.652 231.864 298.089 232.052 298.404 232.307L298.069 232.891C297.874 232.682 297.505 232.515 297.109 232.515C296.8 232.515 296.599 232.629 296.599 232.817C296.599 233.018 296.854 233.092 297.216 233.166C297.773 233.273 298.518 233.421 298.518 234.226C298.518 234.823 298.015 235.266 297.116 235.266C296.552 235.266 296.008 235.078 295.666 234.763ZM301.092 235.186V234.85C300.871 235.112 300.488 235.266 300.066 235.266C299.549 235.266 298.938 234.917 298.938 234.192C298.938 233.434 299.549 233.159 300.066 233.159C300.495 233.159 300.878 233.293 301.092 233.555V233.105C301.092 232.776 300.81 232.562 300.381 232.562C300.032 232.562 299.71 232.689 299.435 232.944L299.113 232.374C299.509 232.025 300.019 231.864 300.529 231.864C301.267 231.864 301.945 232.159 301.945 233.092V235.186H301.092ZM301.092 234.407V234.005C300.951 233.817 300.683 233.723 300.408 233.723C300.072 233.723 299.797 233.904 299.797 234.213C299.797 234.515 300.072 234.689 300.408 234.689C300.683 234.689 300.951 234.595 301.092 234.407ZM302.79 235.186V230.709H303.642V235.186H302.79ZM304.279 233.562C304.279 232.622 304.971 231.864 305.957 231.864C306.924 231.864 307.581 232.589 307.581 233.649V233.837H305.172C305.226 234.246 305.555 234.588 306.105 234.588C306.407 234.588 306.763 234.468 306.971 234.266L307.346 234.817C307.018 235.119 306.514 235.266 306.011 235.266C305.024 235.266 304.279 234.602 304.279 233.562ZM305.957 232.542C305.427 232.542 305.199 232.938 305.159 233.26H306.756C306.736 232.951 306.521 232.542 305.957 232.542ZM307.915 234.763L308.284 234.166C308.519 234.387 309.002 234.609 309.405 234.609C309.774 234.609 309.949 234.481 309.949 234.28C309.949 234.052 309.667 233.971 309.298 233.897C308.741 233.79 308.022 233.656 308.022 232.884C308.022 232.34 308.499 231.864 309.351 231.864C309.902 231.864 310.338 232.052 310.653 232.307L310.318 232.891C310.123 232.682 309.754 232.515 309.358 232.515C309.049 232.515 308.848 232.629 308.848 232.817C308.848 233.018 309.103 233.092 309.465 233.166C310.022 233.273 310.767 233.421 310.767 234.226C310.767 234.823 310.264 235.266 309.365 235.266C308.801 235.266 308.257 235.078 307.915 234.763ZM313.535 231.468C313.26 231.468 313.025 231.24 313.025 230.958C313.025 230.676 313.26 230.448 313.535 230.448C313.817 230.448 314.045 230.676 314.045 230.958C314.045 231.24 313.817 231.468 313.535 231.468ZM313.112 235.186V231.944H313.965V235.186H313.112ZM316.998 235.186V233.226C316.998 232.776 316.763 232.622 316.4 232.622C316.065 232.622 315.803 232.81 315.662 233.005V235.186H314.81V231.944H315.662V232.367C315.87 232.119 316.266 231.864 316.796 231.864C317.508 231.864 317.85 232.266 317.85 232.897V235.186H316.998ZM324.326 235.186V231.964L323.064 235.186H322.648L321.386 231.964V235.186H320.433V230.709H321.769L322.856 233.501L323.943 230.709H325.286V235.186H324.326ZM328.101 235.186V234.85C327.879 235.112 327.497 235.266 327.074 235.266C326.557 235.266 325.946 234.917 325.946 234.192C325.946 233.434 326.557 233.159 327.074 233.159C327.503 233.159 327.886 233.293 328.101 233.555V233.105C328.101 232.776 327.819 232.562 327.389 232.562C327.04 232.562 326.718 232.689 326.443 232.944L326.121 232.374C326.517 232.025 327.027 231.864 327.537 231.864C328.275 231.864 328.953 232.159 328.953 233.092V235.186H328.101ZM328.101 234.407V234.005C327.96 233.817 327.691 233.723 327.416 233.723C327.081 233.723 326.805 233.904 326.805 234.213C326.805 234.515 327.081 234.689 327.416 234.689C327.691 234.689 327.96 234.595 328.101 234.407ZM329.812 235.689C329.886 235.723 330 235.743 330.08 235.743C330.302 235.743 330.449 235.682 330.53 235.508L330.651 235.233L329.335 231.944H330.248L331.094 234.199L331.939 231.944H332.859L331.335 235.716C331.094 236.327 330.664 236.488 330.107 236.501C330.006 236.501 329.792 236.481 329.684 236.454L329.812 235.689Z" fill="#848484"/>
</g>
</g>
<g filter="url(#filter2_d_331_746)">
<rect x="239" y="41" width="222" height="94" rx="11.913" fill="white"/>
</g>
<path opacity="0.21" fill-rule="evenodd" clip-rule="evenodd" d="M396.658 88.528V94.4845C396.658 105.293 405.421 114.056 416.23 114.056H422.186H428.143C438.952 114.056 447.714 105.293 447.714 94.4845V88.528V82.5714C447.714 71.7624 438.952 63 428.143 63H422.186H416.23C405.421 63 396.658 71.7624 396.658 82.5714V88.528Z" fill="#4AD991"/>
<path d="M412.921 97.7936H432.776C433.507 97.7936 434.099 98.3863 434.099 99.1173C434.099 99.8484 433.507 100.441 432.776 100.441H411.597C410.866 100.441 410.273 99.8484 410.273 99.1173V77.9386C410.273 77.2075 410.866 76.6149 411.597 76.6149C412.328 76.6149 412.921 77.2075 412.921 77.9386V97.7936Z" fill="#4AD991"/>
<path opacity="0.5" d="M417.857 92.0806C417.357 92.6139 416.52 92.641 415.986 92.141C415.453 91.641 415.426 90.8033 415.926 90.27L420.89 84.9753C421.373 84.4595 422.177 84.4148 422.715 84.8737L426.632 88.2168L431.737 81.7512C432.19 81.1774 433.022 81.0795 433.596 81.5325C434.17 81.9855 434.267 82.8179 433.815 83.3916L427.858 90.9366C427.393 91.5259 426.531 91.6106 425.96 91.1233L421.957 87.7075L417.857 92.0806Z" fill="#4AD991"/>
<path opacity="0.7" d="M255.131 71V63.3212H252.381V61.9189H259.475V63.3212H256.724V71H255.131ZM262.316 71.1634C260.233 71.1634 258.939 69.5977 258.939 67.7052C258.939 65.8263 260.233 64.2606 262.316 64.2606C264.426 64.2606 265.706 65.8263 265.706 67.7052C265.706 69.5977 264.426 71.1634 262.316 71.1634ZM262.316 69.8972C263.541 69.8972 264.222 68.8761 264.222 67.7052C264.222 66.5479 263.541 65.5268 262.316 65.5268C261.104 65.5268 260.423 66.5479 260.423 67.7052C260.423 68.8761 261.104 69.8972 262.316 69.8972ZM269.126 71.1634C268.024 71.1634 267.438 70.5643 267.438 69.4751V65.6766H266.349V64.424H267.438V62.6268H268.868V64.424H270.202V65.6766H268.868V69.1211C268.868 69.5704 269.086 69.8972 269.494 69.8972C269.766 69.8972 270.025 69.7883 270.134 69.6657L270.474 70.7413C270.216 70.9864 269.794 71.1634 269.126 71.1634ZM275.516 71V70.292C275.026 70.8502 274.264 71.1634 273.393 71.1634C272.317 71.1634 271.105 70.4418 271.105 68.985C271.105 67.4737 272.317 66.8475 273.393 66.8475C274.277 66.8475 275.04 67.1334 275.516 67.6916V66.7113C275.516 65.9489 274.89 65.486 273.978 65.486C273.243 65.486 272.603 65.7583 272.031 66.3165L271.446 65.3226C272.208 64.601 273.161 64.2606 274.209 64.2606C275.666 64.2606 276.946 64.8733 276.946 66.6432V71H275.516ZM275.516 69.5024V68.5085C275.19 68.0592 274.577 67.8277 273.951 67.8277C273.147 67.8277 272.548 68.2906 272.548 69.0122C272.548 69.7202 273.147 70.1831 273.951 70.1831C274.577 70.1831 275.19 69.9517 275.516 69.5024ZM278.799 71V61.9189H280.229V71H278.799ZM285.036 69.7202L285.921 68.4949C286.547 69.162 287.527 69.7474 288.793 69.7474C290.1 69.7474 290.618 69.1075 290.618 68.5085C290.618 67.6916 289.651 67.4465 288.548 67.1606C287.064 66.793 285.322 66.3573 285.322 64.4376C285.322 62.94 286.642 61.7827 288.63 61.7827C290.046 61.7827 291.19 62.232 292.034 63.0489L291.122 64.2334C290.414 63.5254 289.447 63.1987 288.494 63.1987C287.554 63.1987 286.955 63.6479 286.955 64.3287C286.955 65.0367 287.881 65.2681 288.957 65.5404C290.454 65.9216 292.238 66.3845 292.238 68.3587C292.238 69.87 291.176 71.1634 288.725 71.1634C287.051 71.1634 285.839 70.5779 285.036 69.7202ZM297.681 71V70.292C297.19 70.8502 296.428 71.1634 295.557 71.1634C294.481 71.1634 293.269 70.4418 293.269 68.985C293.269 67.4737 294.481 66.8475 295.557 66.8475C296.442 66.8475 297.204 67.1334 297.681 67.6916V66.7113C297.681 65.9489 297.054 65.486 296.142 65.486C295.407 65.486 294.767 65.7583 294.195 66.3165L293.61 65.3226C294.372 64.601 295.325 64.2606 296.374 64.2606C297.83 64.2606 299.11 64.8733 299.11 66.6432V71H297.681ZM297.681 69.5024V68.5085C297.354 68.0592 296.741 67.8277 296.115 67.8277C295.312 67.8277 294.713 68.2906 294.713 69.0122C294.713 69.7202 295.312 70.1831 296.115 70.1831C296.741 70.1831 297.354 69.9517 297.681 69.5024ZM300.964 71V61.9189H302.393V71H300.964ZM303.839 67.7052C303.839 65.7991 305.228 64.2606 307.175 64.2606C309.149 64.2606 310.415 65.7719 310.415 67.8413V68.1817H305.337C305.446 69.1756 306.195 69.9925 307.434 69.9925C308.073 69.9925 308.836 69.7338 309.299 69.2709L309.952 70.2103C309.299 70.8366 308.332 71.1634 307.284 71.1634C305.31 71.1634 303.839 69.7883 303.839 67.7052ZM307.175 65.4315C305.949 65.4315 305.391 66.3709 305.323 67.1742H309.026C308.999 66.3982 308.468 65.4315 307.175 65.4315ZM311.254 70.1423L311.908 69.1075C312.371 69.584 313.283 70.0333 314.141 70.0333C314.999 70.0333 315.434 69.7202 315.434 69.2301C315.434 68.6582 314.74 68.454 313.937 68.277C312.807 68.032 311.459 67.7324 311.459 66.262C311.459 65.1864 312.384 64.2606 314.045 64.2606C315.162 64.2606 316.006 64.6555 316.605 65.1864L316.006 66.1939C315.611 65.7446 314.876 65.4043 314.059 65.4043C313.31 65.4043 312.834 65.6766 312.834 66.1395C312.834 66.6432 313.487 66.8202 314.263 66.9972C315.407 67.2423 316.809 67.569 316.809 69.1211C316.809 70.2784 315.843 71.1634 314.073 71.1634C312.956 71.1634 311.935 70.8094 311.254 70.1423Z" fill="#2B2B2B"/>
<path d="M265.819 106.523C265.819 109.143 264.104 111.192 260.601 111.55V113.718H258.338V111.574C255.836 111.359 254.025 110.406 252.715 109.096L254.549 106.523C255.455 107.452 256.741 108.262 258.338 108.548V104.807C255.884 104.211 253.215 103.258 253.215 100.042C253.215 97.6116 255.145 95.5625 258.338 95.2528V93.037H260.601V95.3004C262.531 95.4911 264.151 96.2535 265.438 97.421L263.556 99.8989C262.722 99.1126 261.673 98.6123 260.601 98.3502V101.686C263.079 102.329 265.819 103.282 265.819 106.523ZM256.694 99.7559C256.694 100.495 257.456 100.9 258.552 101.185V98.1596C257.337 98.2787 256.694 98.8982 256.694 99.7559ZM260.387 108.619C261.745 108.429 262.364 107.69 262.364 106.904C262.364 106.022 261.53 105.617 260.387 105.284V108.619ZM268.32 107.213C268.32 105.284 269.821 103.806 271.727 103.139C269.964 102.544 268.582 101.376 268.582 99.3985C268.582 96.4203 271.751 95.2051 274.706 95.2051C277.636 95.2051 280.829 96.4203 280.829 99.3985C280.829 101.376 279.423 102.544 277.66 103.139C279.566 103.806 281.091 105.284 281.091 107.213C281.091 110.168 278.041 111.621 274.706 111.621C271.37 111.621 268.32 110.192 268.32 107.213ZM277.374 99.9227C277.374 98.8029 276.254 98.1119 274.706 98.1119C273.133 98.1119 272.013 98.8029 272.013 99.9227C272.013 101.162 273.729 101.71 274.706 101.853C275.682 101.71 277.374 101.162 277.374 99.9227ZM277.66 106.808C277.66 105.427 275.682 104.759 274.706 104.64C273.705 104.759 271.751 105.427 271.751 106.808C271.751 107.976 273.038 108.715 274.706 108.715C276.326 108.715 277.66 107.976 277.66 106.808ZM284.383 109.953L285.884 107.428C286.742 108.214 287.647 108.643 289.053 108.643C291.602 108.643 293.032 106.475 293.032 104.068V103.735C292.269 104.807 290.673 105.784 288.934 105.784C286.074 105.784 283.501 104.021 283.501 100.637C283.501 97.5401 285.979 95.1813 289.601 95.1813C294.414 95.1813 296.439 98.8982 296.439 103.401C296.439 108.19 293.746 111.597 289.053 111.597C287.123 111.597 285.503 110.954 284.383 109.953ZM292.984 101.448C292.865 99.9227 292.007 98.1119 289.744 98.1119C287.933 98.1119 286.956 99.3747 286.956 100.495C286.956 102.186 288.362 102.925 289.887 102.925C291.078 102.925 292.245 102.377 292.984 101.448ZM300.29 114.6L298.979 113.527C299.742 113.122 300.623 112.145 300.814 111.312C300.742 111.335 300.528 111.383 300.361 111.383C299.456 111.383 298.741 110.668 298.741 109.644C298.741 108.595 299.599 107.738 300.6 107.738C301.719 107.738 302.744 108.619 302.744 110.168C302.744 111.955 301.743 113.551 300.29 114.6ZM305.378 103.401C305.378 99.3032 307.404 95.2051 311.954 95.2051C316.481 95.2051 318.53 99.3032 318.53 103.401C318.53 107.499 316.481 111.621 311.954 111.621C307.404 111.621 305.378 107.499 305.378 103.401ZM315.076 103.401C315.076 100.471 314.218 98.2072 311.954 98.2072C309.667 98.2072 308.809 100.471 308.809 103.401C308.809 106.332 309.667 108.619 311.954 108.619C314.218 108.619 315.076 106.332 315.076 103.401ZM321.004 103.401C321.004 99.3032 323.03 95.2051 327.58 95.2051C332.107 95.2051 334.156 99.3032 334.156 103.401C334.156 107.499 332.107 111.621 327.58 111.621C323.03 111.621 321.004 107.499 321.004 103.401ZM330.702 103.401C330.702 100.471 329.844 98.2072 327.58 98.2072C325.293 98.2072 324.435 100.471 324.435 103.401C324.435 106.332 325.293 108.619 327.58 108.619C329.844 108.619 330.702 106.332 330.702 103.401ZM336.63 103.401C336.63 99.3032 338.655 95.2051 343.206 95.2051C347.733 95.2051 349.782 99.3032 349.782 103.401C349.782 107.499 347.733 111.621 343.206 111.621C338.655 111.621 336.63 107.499 336.63 103.401ZM346.327 103.401C346.327 100.471 345.47 98.2072 343.206 98.2072C340.919 98.2072 340.061 100.471 340.061 103.401C340.061 106.332 340.919 108.619 343.206 108.619C345.47 108.619 346.327 106.332 346.327 103.401Z" fill="#1E265E"/>
<path opacity="0.21" fill-rule="evenodd" clip-rule="evenodd" d="M392.21 234.297L383.568 252.522C378.836 262.503 383.091 274.43 393.072 279.162L411.297 287.803L429.522 296.445C439.503 301.177 451.43 296.922 456.162 286.942L464.803 268.716L473.445 250.491C478.177 240.51 473.922 228.583 463.941 223.851L445.716 215.21L427.491 206.568C417.51 201.836 405.583 206.091 400.851 216.072L392.21 234.297Z" fill="#FFD572"/>
<path fill-rule="evenodd" clip-rule="evenodd" d="M413.619 236.025L424.954 252.437C425.076 252.614 425.219 252.767 425.377 252.897L417.091 270.374L406.286 254.365C405.79 253.63 405.719 252.687 406.099 251.885L413.619 236.025ZM450.029 252.995L442.395 269.095C442.015 269.896 441.24 270.438 440.357 270.519L421.124 272.286L429.483 254.656C429.528 254.655 429.574 254.653 429.619 254.649L450.029 252.995Z" fill="url(#paint6_linear_331_746)"/>
<path opacity="0.499209" fill-rule="evenodd" clip-rule="evenodd" d="M416.183 231.884C416.487 231.734 416.825 231.644 417.176 231.628L437.066 230.699C437.901 230.66 438.701 231.039 439.199 231.71L451.069 247.698C451.23 247.915 451.353 248.154 451.436 248.403L429.259 250.2C429.113 250.212 428.972 250.238 428.836 250.276C428.779 250.147 428.71 250.021 428.627 249.901L416.183 231.884Z" fill="url(#paint7_linear_331_746)"/>
<defs>
<filter id="filter0_d_331_746" x="125.155" y="119.155" width="277.128" height="320.079" filterUnits="userSpaceOnUse" color-interpolation-filters="sRGB">
<feFlood flood-opacity="0" result="BackgroundImageFix"/>
<feColorMatrix in="SourceAlpha" type="matrix" values="0 0 0 0 0 0 0 0 0 0 0 0 0 0 0 0 0 0 127 0" result="hardAlpha"/>
<feOffset dx="5.10559" dy="5.10559"/>
<feGaussianBlur stdDeviation="22.9752"/>
<feColorMatrix type="matrix" values="0 0 0 0 0 0 0 0 0 0 0 0 0 0 0 0 0 0 0.05 0"/>
<feBlend mode="normal" in2="BackgroundImageFix" result="effect1_dropShadow_331_746"/>
<feBlend mode="normal" in="SourceGraphic" in2="effect1_dropShadow_331_746" result="shape"/>
</filter>
<filter id="filter1_d_331_746" x="252.658" y="225.658" width="89.7712" height="15.0559" filterUnits="userSpaceOnUse" color-interpolation-filters="sRGB">
<feFlood flood-opacity="0" result="BackgroundImageFix"/>
<feColorMatrix in="SourceAlpha" type="matrix" values="0 0 0 0 0 0 0 0 0 0 0 0 0 0 0 0 0 0 127 0" result="hardAlpha"/>
<feOffset/>
<feGaussianBlur stdDeviation="0.671113"/>
<feComposite in2="hardAlpha" operator="out"/>
<feColorMatrix type="matrix" values="0 0 0 0 0 0 0 0 0 0 0 0 0 0 0 0 0 0 0.25 0"/>
<feBlend mode="normal" in2="BackgroundImageFix" result="effect1_dropShadow_331_746"/>
<feBlend mode="normal" in="SourceGraphic" in2="effect1_dropShadow_331_746" result="shape"/>
</filter>
<filter id="filter2_d_331_746" x="198.155" y="0.155277" width="313.901" height="185.901" filterUnits="userSpaceOnUse" color-interpolation-filters="sRGB">
<feFlood flood-opacity="0" result="BackgroundImageFix"/>
<feColorMatrix in="SourceAlpha" type="matrix" values="0 0 0 0 0 0 0 0 0 0 0 0 0 0 0 0 0 0 127 0" result="hardAlpha"/>
<feOffset dx="5.10559" dy="5.10559"/>
<feGaussianBlur stdDeviation="22.9752"/>
<feColorMatrix type="matrix" values="0 0 0 0 0 0 0 0 0 0 0 0 0 0 0 0 0 0 0.05 0"/>
<feBlend mode="normal" in2="BackgroundImageFix" result="effect1_dropShadow_331_746"/>
<feBlend mode="normal" in="SourceGraphic" in2="effect1_dropShadow_331_746" result="shape"/>
</filter>
<linearGradient id="paint0_linear_331_746" x1="184.264" y1="206.369" x2="184.264" y2="301.922" gradientUnits="userSpaceOnUse">
<stop stop-color="#344BFD" stop-opacity="0"/>
<stop offset="1" stop-color="#1F2D97"/>
</linearGradient>
<linearGradient id="paint1_linear_331_746" x1="210.098" y1="206.369" x2="210.098" y2="301.922" gradientUnits="userSpaceOnUse">
<stop stop-color="#344BFD" stop-opacity="0"/>
<stop offset="1" stop-color="#1F2D97"/>
</linearGradient>
<linearGradient id="paint2_linear_331_746" x1="339.267" y1="206.369" x2="339.267" y2="301.922" gradientUnits="userSpaceOnUse">
<stop stop-color="#344BFD" stop-opacity="0"/>
<stop offset="1" stop-color="#1F2D97"/>
</linearGradient>
<linearGradient id="paint3_linear_331_746" x1="235.932" y1="206.369" x2="235.932" y2="301.922" gradientUnits="userSpaceOnUse">
<stop stop-color="#344BFD" stop-opacity="0"/>
<stop offset="1" stop-color="#1F2D97"/>
</linearGradient>
<linearGradient id="paint4_linear_331_746" x1="261.766" y1="206.369" x2="261.766" y2="301.922" gradientUnits="userSpaceOnUse">
<stop stop-color="#344BFD" stop-opacity="0"/>
<stop offset="1" stop-color="#1F2D97"/>
</linearGradient>
<linearGradient id="paint5_linear_331_746" x1="287.599" y1="206.369" x2="287.599" y2="301.922" gradientUnits="userSpaceOnUse">
<stop stop-color="#344BFD" stop-opacity="0"/>
<stop offset="1" stop-color="#1F2D97"/>
</linearGradient>
<linearGradient id="paint6_linear_331_746" x1="431.881" y1="244.391" x2="419.107" y2="271.33" gradientUnits="userSpaceOnUse">
<stop stop-color="#FFD572"/>
<stop offset="1" stop-color="#FEBD38"/>
</linearGradient>
<linearGradient id="paint7_linear_331_746" x1="438.189" y1="230.905" x2="428.974" y2="250.341" gradientUnits="userSpaceOnUse">
<stop stop-color="#FFD572"/>
<stop offset="1" stop-color="#FEBD38"/>
</linearGradient>
</defs>
</svg>
